<?xml version="1.0" encoding="utf-8"?>
<!-- Generator: Adobe Illustrator 19.2.0, SVG Export Plug-In . SVG Version: 6.00 Build 0)  -->
<svg version="1.1" id="Layer_4" xmlns="http://www.w3.org/2000/svg" xmlns:xlink="http://www.w3.org/1999/xlink" x="0px" y="0px"
	 viewBox="0 0 529.3 599" style="enable-background:new 0 0 529.3 599;" xml:space="preserve">
<style type="text/css">
	.st0{fill:#E20909;}
	.st1{fill:#FFE01B;}
</style>
<path d="M266.5,599c-50.2-12.1-95.7-57.6-128.8-92.3C98.4,465.5,62.3,421,39.3,368.5C-12,251.4,1.7,124.1,1.5,0
	c175.3,0,352.4,0,527.8,0c0.2,123.4,11.9,249.7-39,366c-23.2,53.1-59,100.8-97.3,144C360.9,546.3,317.5,589,266.5,599"/>
<path class="st0" d="M387,71l-0.1,118l72.1,0l-1.9,49.1l-70.1-0.1c0,0,0,179,0,184.2c-3,4.8-18.1,24.4-22.4,30
	c-4.8,6.3-21.4,25.4-26.6,30.6c0-81,0-244.8,0-244.8l-69,0v-49l69,0l0-118.1L387,71z"/>
<polygon class="st1" points="268.9,71 331.9,71 331.9,183 268.9,183 "/>
<path class="st1" d="M392.9,183c0,0,59.6,0,66,0c0.4-8.7-1-112-1-112l-65,0L392.9,183z"/>
<path class="st1" d="M332,244c0,0-0.1,238-0.1,245c-6.5,6.5-20,17.9-28.2,23.2c-8.3,5.3-23.7,13.4-34.3,14.9
	c0-12.8-0.5-283.1-0.5-283.1L332,244L332,244z"/>
<path class="st1" d="M456.9,244c-5.3,73.4-32.1,128.6-64,170.6c0-56.3,0-114.2,0-170.6C396.8,244,437.4,244,456.9,244z"/>
<polygon class="st1" points="262.6,71 262.8,170.8 167.4,76.3 70.2,173.6 72,71 "/>
<path class="st0" d="M262.9,250.3l-95.5-95.7l-94.3,93.6c0,0-2.1-19.9-2.5-30.4c-0.4-9.6-0.4-36.2-0.4-36.2L167.4,84l95.6,95.6
	L262.9,250.3L262.9,250.3z"/>
<polygon class="st1" points="75.3,266 74,255.8 167.4,162.2 262.9,257.8 262.9,269.1 167.4,173.7 "/>
<path class="st0" d="M262.9,347.5L167.5,252l-76.7,76.4c0,0-8.5-26.8-11.3-41.4c-0.9-4.6-2.5-14.6-2.5-14.6l90.4-90.4l95.5,95.6
	L262.9,347.5z"/>
<polygon class="st1" points="262.9,368.4 167.5,272.8 96.4,344.3 92.5,334.7 167.4,259.9 262.9,355.5 "/>
<path class="st0" d="M262.9,447.1l-95.4-95.7l-44.2,44.1c-4.7-6.8-10.7-16.5-13.1-21.9c-4.5-9.8-10.2-24.8-10.2-24.8l67.4-67.7
	l95.5,95.8L262.9,447.1z"/>
<path class="st1" d="M263.1,527.1c-32.8-10.1-55.7-34-77.4-55.7c-22-22-38.7-41.6-58.8-71.7l40.4-40.6l95.5,95.9"/>
<path class="st1" d="M34.5,14.9c5.7,0.5,6.1,8.1,9,13c4,6.7,9.4,8.7,8,19c-1.2,8.6-10.1,13.8-18,13c-5-0.5-11.7-5-13-10
	c-4.6-18,13.5-16.2,12-35C33.1,14.9,33.8,14.9,34.5,14.9z M39.5,55.9c7.6,0.5,10.7-8.6,8-15C47.9,48.9,39.7,48.4,39.5,55.9z"/>
<path d="M47.5,41c2.7,6.4-0.4,15.5-8,15C39.7,48.6,47.9,49,47.5,41z"/>
<path class="st1" d="M146.5,14.9c6,1,6.4,8.5,9,13c2.8,4.8,7.3,8.2,8,13c1.8,12.8-8.7,19.9-18,19c-5.3-0.5-11.8-5.2-13-10
	c-4.6-17.9,13.4-16.3,12-35C145.1,14.9,145.8,14.9,146.5,14.9z M151.5,55.9c7.6,0.5,10.7-8.6,8-15C159.9,48.9,151.7,48.4,151.5,55.9
	z"/>
<path d="M159.5,41c2.7,6.4-0.4,15.5-8,15C151.7,48.6,159.9,49,159.5,41z"/>
<path class="st1" d="M258.5,15c6,1,6.4,8.5,9,13c2.8,4.8,7.3,8.2,8,13c3.7,25.3-36.6,25.2-31-1c1.9-9.1,12.7-9.3,12-25
	C257.1,15,257.8,15,258.5,15z M263.5,56c7.6,0.5,10.7-8.6,8-15C271.9,49,263.7,48.6,263.5,56z"/>
<path d="M271.5,41c2.7,6.4-0.4,15.5-8,15C263.7,48.6,271.9,49,271.5,41z"/>
<path class="st1" d="M372.5,15.1c1.3,0,2.7,0,4,0c4.8,2.7,4.5,7.5,7,12c3.1,5.6,8.7,9.7,9,16c1.1,21.3-31.7,22.4-32,2
	C360.3,31.1,374,33.8,372.5,15.1z M380.5,56.1c6.5-0.3,11.8-9.7,7-15C389.1,49.5,377.8,49.8,380.5,56.1z"/>
<path d="M387.5,41c4.8,5.3-0.5,14.7-7,15C377.8,49.7,389.1,49.5,387.5,41z"/>
<path class="st1" d="M493.5,15.2c3.7,1.9,3.4,6.1,6,11c3.8,7,11.9,10.9,9,23c-3.3,13.9-34.1,15.8-31-7c1.3-9.8,14.5-14.9,12-27
	C490.8,15.2,492.1,15.2,493.5,15.2z M496.5,55.2c6.3,3.4,11.6-7.6,8-14C504.8,48.9,497.8,49.2,496.5,55.2z"/>
<path d="M504.5,41c3.6,6.4-1.7,17.4-8,14C497.8,49,504.8,48.6,504.5,41z"/>
<path class="st1" d="M491.5,167c5.9,2,5.6,7.8,8,12c3.2,5.8,8.9,9.9,9,17c0.3,19.7-30.8,21.8-32,2c-0.8-13.8,14-14.8,13-31
	C490.1,167,490.8,167,491.5,167z M495.5,207c6.7,3.8,13.4-8.8,8-14C504.4,201.3,497.3,201.5,495.5,207z"/>
<path d="M503.5,193c5.4,5.2-1.3,17.8-8,14C497.3,201.5,504.4,201.3,503.5,193z"/>
<path class="st1" d="M35.5,167c5.6,1.5,5.6,7.7,8,12c3.4,6.1,8.9,10.2,9,17c0.3,20.6-31.8,21.1-32,1c-0.1-13.5,13.4-12.6,13-30
	C34.1,167,34.8,167,35.5,167z M39.5,207c6.7,3.8,13.4-8.8,8-14C48.4,201.3,41.3,201.5,39.5,207z"/>
<path d="M47.5,193c5.4,5.2-1.3,17.8-8,14C41.3,201.5,48.4,201.3,47.5,193z"/>
<path class="st1" d="M60.2,332.2c0.6-1.1,1.1-1.1,2.2-1.6c1.2-0.5,2-0.5,3.2-0.7c4.9,14.7,22.9,13.3,21,31c-1.8,16.7-28,18.3-31,2
	c-1.6-8.5,2.5-11.6,5-18C61.6,341.3,61.4,336,60.2,332.2z M76.5,368c7.9,3.7,9.7-15.4,4-15C84.1,359,76.9,362.7,76.5,368z"/>
<path d="M80.5,353c5.7-0.4,3.9,18.7-4,15C76.9,362.7,84.1,359,80.5,353z"/>
<path class="st1" d="M480.6,331c-0.8,7.1-1,16-0.5,23.6c0.6,9.9-4.1,16.7-14.6,17.4c-10.8,0.8-22.6-13.9-12.4-26.4
	c5.6-6.8,17.6-3.8,23.3-16.6C477.8,329.5,479.1,330.2,480.6,331z M462.5,367c4.9,6.3,16-3.2,13-8C474.2,364.7,465.5,363,462.5,367z"
	/>
<path d="M475.5,359c3,4.8-8.1,14.3-13,8C465.5,363,474.2,364.7,475.5,359z"/>
<path class="st1" d="M137.1,460.1c0.3-0.9,0.5-1.1,1.3-2.3c0.7-0.5,1.4-0.8,2.1-0.8c5.5,2.4,7.7,5.5,12,8c4.1,2.3,9.8,2.7,13,6
	c19.4,20-21.8,41.2-26.1,14.1c-0.7-4.7,1.2-8,1.1-12.1C140.4,467.9,139.9,464.4,137.1,460.1z M161.5,490c9.6,0.7,6.1-14.6,1-16
	C165,479.3,162.3,485.1,161.5,490z"/>
<path d="M162.5,474c5.1,1.4,8.6,16.7-1,16C162.3,485.1,165,479.3,162.5,474z"/>
<path class="st1" d="M400.5,461c1.7,4.4-4.2,10-5,16.4c-0.9,7.6-2.3,20.6-15,20.6c-6.8,0-15.2-5.2-16.4-12.6
	c-1.3-8.4,2.7-14.8,9.1-17.1c5.8-2.2,17.1-2.5,23.3-9.4C398,459.5,399,460.5,400.5,461z M374.5,493c3.6,5.7,17.2-0.5,14-5
	C387.9,493.8,375.9,488.1,374.5,493z"/>
<path d="M388.5,488c3.2,4.5-10.4,10.7-14,5C375.9,488.1,387.9,493.8,388.5,488z"/>
<path class="st1" d="M265.5,541c1.6,0,1.7,0.4,3,1c2.3,12.6,13.6,16.6,14,28c0.8,21.5-32.9,22.4-31.3,0c0.8-12,12.3-10.3,11.3-28
	C263.7,541.3,264.4,541,265.5,541z M269.5,582c6.4,2.9,13.2-9.2,8-15C279.2,576.4,270.3,575.1,269.5,582z"/>
<path d="M277.5,567c5.2,5.8-1.6,17.9-8,15C270.3,575.1,279.2,576.4,277.5,567z"/>
</svg>
