<?xml version="1.0" encoding="utf-8"?>
<!-- Generator: Adobe Illustrator 19.2.0, SVG Export Plug-In . SVG Version: 6.00 Build 0)  -->
<svg version="1.1"
	 id="svg2" inkscape:export-filename="/Users/olivier/Desktop/Blason Rouge/Blason_Vide_3D.png" inkscape:export-xdpi="144" inkscape:export-ydpi="144" inkscape:output_extension="org.inkscape.output.svg.inkscape" inkscape:version="0.91 r13725" sodipodi:docname="Template.svg" sodipodi:version="0.32" xmlns:cc="http://creativecommons.org/ns#" xmlns:dc="http://purl.org/dc/elements/1.1/" xmlns:inkscape="http://www.inkscape.org/namespaces/inkscape" xmlns:rdf="http://www.w3.org/1999/02/22-rdf-syntax-ns#" xmlns:sodipodi="http://sodipodi.sourceforge.net/DTD/sodipodi-0.dtd" xmlns:svg="http://www.w3.org/2000/svg"
	 xmlns="http://www.w3.org/2000/svg" xmlns:xlink="http://www.w3.org/1999/xlink" x="0px" y="0px" viewBox="0 0 600 708.1"
	 style="enable-background:new 0 0 600 708.1;" xml:space="preserve">
<style type="text/css">
	.st0{fill:#124731;}
	.st1{fill:#FFFFFF;}
	.st2{fill:#FFFFFF;stroke:#000000;stroke-miterlimit:10;}
	.st3{fill:#E20909;}
	.st4{fill:none;stroke:#124731;stroke-width:3;stroke-miterlimit:10;}
</style>
<sodipodi:namedview  bordercolor="#666666" borderopacity="1.0" gridtolerance="10.0" guidetolerance="10.0" height="660px" id="base" inkscape:current-layer="svg2" inkscape:cx="300" inkscape:cy="329.99986" inkscape:guide-bbox="true" inkscape:pageopacity="0.0" inkscape:pageshadow="2" inkscape:window-height="856" inkscape:window-maximized="0" inkscape:window-width="1280" inkscape:window-x="-4" inkscape:window-y="0" inkscape:zoom="1.1560601" objecttolerance="10.0" pagecolor="#ffffff" showgrid="false" showguides="true">
	</sodipodi:namedview>
<desc  id="desc4">SVG coat of arms</desc>
<g id="g9370" transform="matrix(0.6072994,0,0,0.6935206,-525.20603,251.96104)">
</g>
<g>
	<path class="st0" d="M300.1,706.6c0,0,281.5-113.8,297.8-401.2H300.1V706.6z"/>
	<g>
		<path class="st0" d="M300,1.5H1.5v277.8c0,8.9,0.3,17.6,0.7,26.1H300V1.5z"/>
		<path class="st1" d="M2.3,305.4c16.3,287.5,297.8,401.2,297.8,401.2V305.4H2.3z"/>
		<path class="st1" d="M598.5,1.5H300v303.9h297.8c0.5-8.5,0.7-17.2,0.7-26.1L598.5,1.5L598.5,1.5z"/>
	</g>
</g>
<g>
	<circle class="st2" cx="439.9" cy="457.2" r="69.5"/>
	<g>
		<g>
			<path id="path1886_53_" d="M436.1,467.6c0,2.1,1.7,3.8,3.8,3.8c2.1,0,3.8-1.7,3.8-3.8c0-2.1-1.7-3.8-3.8-3.8
				C437.8,463.7,436.1,465.4,436.1,467.6z"/>
			<path id="path1888_53_" d="M445,476.5c0,2.1,1.7,3.8,3.8,3.8c2.1,0,3.8-1.7,3.8-3.8c0-2.1-1.7-3.8-3.8-3.8
				C446.7,472.7,445,474.4,445,476.5z"/>
			<path id="path1890_53_" d="M427.1,476.5c0,2.1,1.7,3.8,3.8,3.8s3.8-1.7,3.8-3.8c0-2.1-1.7-3.8-3.8-3.8S427.1,474.4,427.1,476.5z"
				/>
			<path d="M452.7,510l-8.1-1.7c-2.2,3.7-4.4,9.6-4.7,10.3c-0.3-0.7-2.4-6.6-4.7-10.3l-8.1,1.7c0,0,12.7-19,12.7-34.3h0h0
				C440,491,452.7,510,452.7,510z"/>
			<path id="path1886_51_" d="M477.5,433.6c0,2.1,1.7,3.8,3.8,3.8s3.8-1.7,3.8-3.8s-1.7-3.8-3.8-3.8S477.5,431.4,477.5,433.6z"/>
			<path id="path1888_51_" d="M486.5,442.5c0,2.1,1.7,3.8,3.8,3.8s3.8-1.7,3.8-3.8s-1.7-3.8-3.8-3.8S486.5,440.4,486.5,442.5z"/>
			<path id="path1890_51_" d="M468.6,442.5c0,2.1,1.7,3.8,3.8,3.8s3.8-1.7,3.8-3.8s-1.7-3.8-3.8-3.8S468.6,440.4,468.6,442.5z"/>
			<path d="M494.1,476l-8.1-1.7c-2.2,3.7-4.4,9.6-4.7,10.3c-0.3-0.7-2.4-6.6-4.7-10.3l-8.1,1.7c0,0,12.7-19,12.7-34.3h0h0
				C481.4,457,494.1,476,494.1,476z"/>
			<path id="path1886_50_" d="M436.1,399.5c0,2.1,1.7,3.8,3.8,3.8c2.1,0,3.8-1.7,3.8-3.8c0-2.1-1.7-3.8-3.8-3.8
				C437.8,395.7,436.1,397.4,436.1,399.5z"/>
			<path id="path1888_50_" d="M445,408.5c0,2.1,1.7,3.8,3.8,3.8c2.1,0,3.8-1.7,3.8-3.8c0-2.1-1.7-3.8-3.8-3.8
				C446.7,404.6,445,406.4,445,408.5z"/>
			<path id="path1890_50_" d="M427.1,408.5c0,2.1,1.7,3.8,3.8,3.8s3.8-1.7,3.8-3.8c0-2.1-1.7-3.8-3.8-3.8S427.1,406.4,427.1,408.5z"
				/>
			<path d="M452.7,442l-8.1-1.7c-2.2,3.7-4.4,9.6-4.7,10.3c-0.3-0.7-2.4-6.6-4.7-10.3l-8.1,1.7c0,0,12.7-19,12.7-34.3h0h0
				C440,423,452.7,442,452.7,442z"/>
		</g>
		<path id="path1886_36_" d="M394.6,433.6c0,2.1,1.7,3.8,3.8,3.8c2.1,0,3.8-1.7,3.8-3.8s-1.7-3.8-3.8-3.8
			C396.3,429.7,394.6,431.4,394.6,433.6z"/>
		<path id="path1888_36_" d="M403.6,442.5c0,2.1,1.7,3.8,3.8,3.8c2.1,0,3.8-1.7,3.8-3.8s-1.7-3.8-3.8-3.8
			C405.3,438.7,403.6,440.4,403.6,442.5z"/>
		<path id="path1890_36_" d="M385.6,442.5c0,2.1,1.7,3.8,3.8,3.8c2.1,0,3.8-1.7,3.8-3.8s-1.7-3.8-3.8-3.8
			C387.4,438.7,385.6,440.4,385.6,442.5z"/>
		<path d="M411.2,476l-8.1-1.7c-2.2,3.7-4.4,9.6-4.7,10.3c-0.3-0.7-2.4-6.6-4.7-10.3l-8.1,1.7c0,0,12.7-19,12.7-34.3h0h0
			C398.5,457,411.2,476,411.2,476z"/>
	</g>
</g>
<g>
	<circle class="st2" cx="152.1" cy="150.7" r="69.5"/>
	<g>
		<g>
			<path id="path1886_4_" d="M148.3,161.1c0,2.1,1.7,3.8,3.8,3.8s3.8-1.7,3.8-3.8s-1.7-3.8-3.8-3.8S148.3,159,148.3,161.1z"/>
			<path id="path1888_4_" d="M157.2,170.1c0,2.1,1.7,3.8,3.8,3.8s3.8-1.7,3.8-3.8c0-2.1-1.7-3.8-3.8-3.8S157.2,167.9,157.2,170.1z"
				/>
			<path id="path1890_4_" d="M139.3,170.1c0,2.1,1.7,3.8,3.8,3.8s3.8-1.7,3.8-3.8c0-2.1-1.7-3.8-3.8-3.8S139.3,167.9,139.3,170.1z"
				/>
			<path d="M164.9,203.5l-8.1-1.7c-2.2,3.7-4.4,9.6-4.7,10.3c-0.3-0.7-2.4-6.6-4.7-10.3l-8.1,1.7c0,0,12.7-19,12.7-34.3h0h0
				C152.2,184.6,164.9,203.5,164.9,203.5z"/>
			<path id="path1886_3_" d="M189.8,127.1c0,2.1,1.7,3.8,3.8,3.8s3.8-1.7,3.8-3.8s-1.7-3.8-3.8-3.8S189.8,125,189.8,127.1z"/>
			<path id="path1888_3_" d="M198.7,136c0,2.1,1.7,3.8,3.8,3.8c2.1,0,3.8-1.7,3.8-3.8c0-2.1-1.7-3.8-3.8-3.8
				C200.4,132.2,198.7,133.9,198.7,136z"/>
			<path id="path1890_3_" d="M180.8,136c0,2.1,1.7,3.8,3.8,3.8c2.1,0,3.8-1.7,3.8-3.8c0-2.1-1.7-3.8-3.8-3.8
				C182.5,132.2,180.8,133.9,180.8,136z"/>
			<path d="M206.4,169.5l-8.1-1.7c-2.2,3.7-4.4,9.6-4.7,10.3c-0.3-0.7-2.4-6.6-4.7-10.3l-8.1,1.7c0,0,12.7-19,12.7-34.3h0h0
				C193.7,150.5,206.4,169.5,206.4,169.5z"/>
			<path id="path1886_2_" d="M148.3,93.1c0,2.1,1.7,3.8,3.8,3.8s3.8-1.7,3.8-3.8c0-2.1-1.7-3.8-3.8-3.8S148.3,90.9,148.3,93.1z"/>
			<path id="path1888_2_" d="M157.2,102c0,2.1,1.7,3.8,3.8,3.8s3.8-1.7,3.8-3.8s-1.7-3.8-3.8-3.8S157.2,99.9,157.2,102z"/>
			<path id="path1890_2_" d="M139.3,102c0,2.1,1.7,3.8,3.8,3.8s3.8-1.7,3.8-3.8s-1.7-3.8-3.8-3.8S139.3,99.9,139.3,102z"/>
			<path d="M164.9,135.5l-8.1-1.7c-2.2,3.7-4.4,9.6-4.7,10.3c-0.3-0.7-2.4-6.6-4.7-10.3l-8.1,1.7c0,0,12.7-19,12.7-34.3h0h0
				C152.2,116.5,164.9,135.5,164.9,135.5z"/>
		</g>
		<path id="path1886_1_" d="M106.8,127.1c0,2.1,1.7,3.8,3.8,3.8s3.8-1.7,3.8-3.8s-1.7-3.8-3.8-3.8S106.8,125,106.8,127.1z"/>
		<path id="path1888_1_" d="M115.8,136c0,2.1,1.7,3.8,3.8,3.8c2.1,0,3.8-1.7,3.8-3.8c0-2.1-1.7-3.8-3.8-3.8
			C117.5,132.2,115.8,133.9,115.8,136z"/>
		<path id="path1890_1_" d="M97.9,136c0,2.1,1.7,3.8,3.8,3.8c2.1,0,3.8-1.7,3.8-3.8c0-2.1-1.7-3.8-3.8-3.8
			C99.6,132.2,97.9,133.9,97.9,136z"/>
		<path d="M123.4,169.5l-8.1-1.7c-2.2,3.7-4.4,9.6-4.7,10.3c-0.3-0.7-2.4-6.6-4.7-10.3l-8.1,1.7c0,0,12.7-19,12.7-34.3h0h0
			C110.8,150.5,123.4,169.5,123.4,169.5z"/>
	</g>
</g>
<path class="st3" d="M454.9,82c14.8,5.9,25.3,20.5,25.3,37.4c0,22.3-18,40.3-40.3,40.3c-22.3,0-40.3-18-40.3-40.3
	c0-17,10.5-31.5,25.3-37.4c-31.2,6.8-54.6,34.6-54.6,67.9c0,38.4,31.1,69.5,69.5,69.5s69.5-31.1,69.5-69.5
	C509.4,116.6,486.1,88.8,454.9,82z"/>
<path class="st3" d="M167.1,388.4c14.8,5.9,25.3,20.5,25.3,37.4c0,22.3-18,40.3-40.3,40.3s-40.3-18-40.3-40.3
	c0-17,10.5-31.5,25.3-37.4c-31.2,6.8-54.6,34.6-54.6,67.9c0,38.4,31.1,69.5,69.5,69.5s69.5-31.1,69.5-69.5
	C221.7,423.1,198.3,395.3,167.1,388.4z"/>
<g>
	<path class="st0" d="M300,24.2c0.8,0.3,24.9,8.1,24.9,39.4c0,1.6,0,3.2,0,4.6h0c5.6-6.3,13.8-10.2,22.8-10.2
		c16.9,0,30.7,13.8,30.7,30.8c0,1.1-0.1,2.2-0.2,3.3c-4.7-2.8-10.4-4.5-16.4-4.5c-16.3,0-29.7,12-30.4,27.1l0.2,159.3l152.7,0.2
		c15.1-0.7,27.1-14.1,27.1-30.4c0-6.1-1.7-11.7-4.5-16.4c1.1-0.1,2.2-0.2,3.3-0.2c17,0,30.8,13.7,30.8,30.7c0,9.1-4,17.2-10.2,22.8
		v0c1.5,0,3,0,4.6,0c31.8,0,39.4,24.8,39.4,24.8s0,0,0,0.1H300V24.2z"/>
	<path class="st1" d="M25.4,305.5C25.4,305.5,25.4,305.5,25.4,305.5c0,0,7.6-24.9,39.4-24.9c1.6,0,3.2,0,4.6,0v0
		c-6.3-5.6-10.2-13.8-10.2-22.8c0-16.9,13.8-30.7,30.8-30.7c1.1,0,2.2,0.1,3.3,0.2c-2.8,4.7-4.5,10.4-4.5,16.4
		c0,16.3,12,29.7,27.1,30.4l152.7-0.2l0.2-159.3c-0.7-15.1-14.1-27.1-30.4-27.1c-6.1,0-11.7,1.7-16.4,4.5c-0.1-1.1-0.2-2.2-0.2-3.3
		c0-17,13.7-30.8,30.7-30.8c9.1,0,17.2,4,22.8,10.2h0c0-1.5,0-3,0-4.6c0-31.8,24.8-39.4,24.8-39.4s0,0,0,0v281.3H25.4z"/>
	<path class="st1" d="M574.6,305.5c-0.5,1.6-8.7,24.8-39.3,24.8c-1.6,0-3.2,0-4.6,0v0c6.3,5.6,10.2,13.8,10.2,22.8
		c0,16.9-13.8,30.7-30.8,30.7c-1.1,0-2.2-0.1-3.3-0.2c2.8-4.7,4.5-10.4,4.5-16.4c0-16.3-12-29.7-27.1-30.4L331.5,337l-0.2,247.3
		c0.7,15.1,14.1,27.1,30.4,27.1c6.1,0,11.7-1.7,16.4-4.5c0.1,1.1,0.2,2.2,0.2,3.3c0,17-13.7,30.8-30.7,30.8c-9.1,0-17.2-4-22.8-10.2
		h0c0,1.5,0,3,0,4.6c0,31.8-24.8,39.4-24.8,39.4s0,0,0,0V305.5H574.6z"/>
	<path class="st0" d="M64.8,330.3c-31.6,0-39.3-24.5-39.4-24.8H300v369.2c-0.8-0.3-24.9-8.1-24.9-39.4c0-1.6,0-3.2,0-4.6h0
		c-5.6,6.3-13.8,10.2-22.8,10.2c-16.9,0-30.7-13.8-30.7-30.8c0-1.1,0.1-2.2,0.2-3.3c4.7,2.8,10.4,4.5,16.4,4.5
		c16.3,0,29.7-12,30.4-27.1L268.5,337l-152.7-0.2c-15.1,0.7-27.1,14.1-27.1,30.4c0,6.1,1.7,11.7,4.5,16.4c-1.1,0.1-2.2,0.2-3.3,0.2
		c-17,0-30.8-13.7-30.8-30.7c0-9.1,4-17.2,10.2-22.8v0C67.9,330.3,66.4,330.3,64.8,330.3z"/>
</g>
<path class="st4" d="M1.5,1.5c0,0,0.3,295.4,0.7,303.9h0.1c16.2,285.7,297.8,401.2,297.8,401.2c0,0,0,0,0,0S581.7,591,597.9,305.4
	h-0.1c0.5-8.5,0.7-303.9,0.7-303.9H300H1.5z"/>
</svg>
