<?xml version="1.0" encoding="utf-8"?>
<!-- Generator: Adobe Illustrator 16.0.0, SVG Export Plug-In . SVG Version: 6.00 Build 0)  -->
<!DOCTYPE svg PUBLIC "-//W3C//DTD SVG 1.1//EN" "http://www.w3.org/Graphics/SVG/1.1/DTD/svg11.dtd">
<svg version="1.1"
	 id="svg1" xmlns:inkscape="http://www.inkscape.org/namespaces/inkscape" xmlns:sodipodi="http://sodipodi.sourceforge.net/DTD/sodipodi-0.dtd" xmlns:svg="http://www.w3.org/2000/svg" xmlns:rdf="http://www.w3.org/1999/02/22-rdf-syntax-ns#" xmlns:dc="http://purl.org/dc/elements/1.1/" xmlns:cc="http://creativecommons.org/ns#" sodipodi:docbase="H:\Leo\[ Interessantes ]\College Crests\Shields" sodipodi:docname="Trinity College (Cambridge) Crest.svg" inkscape:version="0.46" sodipodi:version="0.32" inkscape:output_extension="org.inkscape.output.svg.inkscape"
	 xmlns="http://www.w3.org/2000/svg" xmlns:xlink="http://www.w3.org/1999/xlink" x="0px" y="0px" width="302.973px"
	 height="352.777px" viewBox="0 0 302.973 352.777" enable-background="new 0 0 302.973 352.777" xml:space="preserve">
<defs>
	
	
		<inkscape:perspective  inkscape:vp_x="0 : 177.16536 : 1" inkscape:vp_y="0 : 1000 : 0" inkscape:vp_z="301.18109 : 177.16536 : 1" sodipodi:type="inkscape:persp3d" id="perspective2757" inkscape:persp3d-origin="150.59055 : 118.11024 : 1">
		</inkscape:perspective>
	
		<inkscape:perspective  inkscape:vp_x="0 : 526.18109 : 1" inkscape:vp_y="0 : 1000 : 0" inkscape:vp_z="744.09448 : 526.18109 : 1" sodipodi:type="inkscape:persp3d" id="perspective2879" inkscape:persp3d-origin="372.04724 : 350.78739 : 1">
		</inkscape:perspective>
</defs>
<g id="Layer_2">
</g>
<sodipodi:namedview  inkscape:zoom="1" showgrid="true" bordercolor="#666666" pagecolor="#ffffff" gridtolerance="0.4mm" borderopacity="1.0" inkscape:cx="40.890019" inkscape:cy="252.25138" id="base" inkscape:window-x="-8" inkscape:window-height="750" inkscape:window-width="1280" inkscape:pageshadow="2" inkscape:pageopacity="0.0" inkscape:current-layer="g1731" inkscape:document-units="mm" inkscape:window-y="-8">
	
		<inkscape:grid  color="#0000ff" type="xygrid" spacingy="10mm" empopacity="0.4" empspacing="5" empcolor="#0000ff" spacingx="10mm" opacity="0.2" originy="0mm" originx="0px" id="GridFromPre046Settings">
		</inkscape:grid>
</sodipodi:namedview>
<path sodipodi:nodetypes="cccccccc" fill="#FFFFFF" stroke="#000000" d="M5.689,47.26c2.068,104.469,23.105,200.913,145.898,261.629
	C281.733,248.217,296.151,150.44,297.485,46.062"/>
<path id="path3981" fill="#FF0000" stroke="#000000" d="M5.487,47.268l291.998-1.206"/>
<path id="path3983_4_" fill="none" stroke="#000000" d="M224.487,257.267"/>
<path id="path3983_3_" fill="none" stroke="#000000" d="M150.486,138.267"/>
<path id="path3983_1_" fill="none" stroke="#000000" d="M76.486,257.267"/>
<path id="path3985_4_" fill="none" stroke="#000000" d="M47.486,221.267"/>
<path id="path3985_3_" fill="none" stroke="#000000" d="M150.486,52.267"/>
<path id="path3985_1_" fill="none" stroke="#000000" d="M253.487,221.267"/>
<path id="path4277" fill="#FF0000" stroke="#070404" stroke-width="2" stroke-linecap="round" d="M190.548,201.877
	c-28.363-45.947-39.588-64.479-40.071-64.479c-0.355,0-16.796,25.947-36.528,57.66c-19.735,31.714-37.201,60.146-37.591,60.743
	c-0.444,0.677-2.261-1.412-4.852-3.911c-4.763-4.594-18.654-21.915-21.063-26.144l-2.623-3.851l51.813-84.326l50.813-83.324
	l2.397,3.824c1.32,2.104,23.9,39.15,50.184,82.326c27.537,45.239,54.229,84.406,53.399,83.456
	c-2.885,7.783-22.38,29.664-29.187,34.858L190.548,201.877z"/>
<path id="path4353" fill="#FFFF00" stroke="#070404" stroke-width="0.2475" stroke-linecap="round" d="M0,0"/>
<path id="path2632" fill="#FFFF00" stroke="#070404" stroke-width="0.2475" stroke-linecap="round" d="M0,0"/>
<path id="path2634" fill="#FFFF00" stroke="#070404" stroke-width="0.2475" stroke-linecap="round" d="M0,0"/>
<path id="path2770" fill="#FFFF00" stroke="#070404" stroke-width="0.1237" stroke-linecap="round" d="M0,0"/>
<path id="path2798" fill="#FFFF00" stroke="#070404" stroke-width="0.1237" stroke-linecap="round" d="M0,0"/>
<path id="path2806" fill="#FFFF00" stroke="#070404" stroke-width="0.0109" stroke-linecap="round" d="M0,0"/>
<path id="path2824" fill="#FFFF00" stroke="#070404" stroke-width="0.0109" stroke-linecap="round" d="M0,0"/>
<path id="path2850" fill="#FF0000" stroke="#070404" stroke-width="0.0219" stroke-linecap="round" d="M0,0"/>
<path id="path2852" fill="#FF0000" stroke="#070404" stroke-width="0.0219" stroke-linecap="round" d="M0,0"/>
<path id="path2864" fill="#FF0000" stroke="#070404" stroke-width="0.1237" stroke-linecap="round" d="M0,0"/>
<path id="path2868" fill="#FF0000" stroke="#070404" stroke-width="0.1237" stroke-linecap="round" d="M0,0"/>
<path id="path2898" fill="#FFFF00" stroke="#070404" stroke-width="0.1237" stroke-linecap="round" d="M0,0"/>
<circle fill="#FF0000" stroke="#070404" stroke-width="2" stroke-linecap="round" cx="152.135" cy="248.078" r="35.433"/>
<path fill="#FF0000" stroke="#070404" stroke-width="2" stroke-linecap="round" d="M95.775,101.458
	c0,19.568-15.865,35.433-35.433,35.433s-35.433-15.865-35.433-35.433c0-11.69,5.662-22.058,14.393-28.511
	c5.884-4.35,13.163-6.922,21.041-6.922C79.91,66.025,95.775,81.889,95.775,101.458z"/>
<circle fill="#FF0000" stroke="#070404" stroke-width="2" stroke-linecap="round" cx="247.964" cy="99.459" r="35.434"/>
<circle fill="#FFFFFF" cx="152.136" cy="248.078" r="14.288"/>
<path fill="none" d="M173.969,256.199"/>
<path fill="none" stroke="#FFFFFF" d="M185.423,250.472"/>
<path fill="none" stroke="#FFFFFF" d="M166.479,246.176"/>
<path fill="none" stroke="#FFFFFF" d="M166.479,245.216"/>
<path fill="none" stroke="#FFFFFF" d="M166.479,250.942"/>
<rect x="152.104" y="246.564" fill="#FFFFFF" stroke="#FDFBEA" width="34.144" height="2.307"/>
<line fill="none" stroke="#FFFFFF" x1="152.135" y1="220.955" x2="152.135" y2="274.318"/>
<line fill="none" stroke="#FFFFFF" x1="126.335" y1="248.078" x2="179.698" y2="248.078"/>
<line fill="none" stroke="#FFFFFF" x1="133.712" y1="266.945" x2="171.445" y2="229.211"/>
<line fill="none" stroke="#FFFFFF" x1="171.001" y1="267.179" x2="133.27" y2="229.446"/>
<line fill="none" stroke="#FFFFFF" x1="172.396" y1="256.004" x2="131.847" y2="239.207"/>
<line fill="none" stroke="#FFFFFF" x1="171.482" y1="240.3" x2="132.789" y2="256.327"/>
<line fill="none" stroke="#FFFFFF" x1="161.029" y1="228.968" x2="145.003" y2="267.661"/>
<line fill="none" stroke="#FFFFFF" x1="143.68" y1="228.968" x2="159.706" y2="267.661"/>
<path fill="none" stroke="#D20E81" d="M315.916,89.247"/>
<path fill="none" stroke="#D20E81" d="M296.301,74.341"/>
<path fill="none" stroke="#D20E81" d="M306.513,101.458"/>
<path fill="none" stroke="#D20E81" d="M311.416,95.506"/>
<path fill="none" stroke="#5EB130" d="M294.987,74.648"/>
<path fill="none" stroke="#FFFFFF" stroke-width="2" d="M258.029,131.519c-3.146-1.703-25.583-7.976-25.583-18.337
	c0-9.998,14.485-12.826,17.915-15.044"/>
<path fill="none" stroke="#FFFFFF" stroke-width="2" d="M239.977,65.82c3.076,1.764,25.49,7.332,25.49,18.062
	c0,10.353-14.169,13.281-17.526,15.578"/>
<path fill="none" stroke="#FFFFFF" stroke-width="2" d="M238.766,131.901c3.191-1.703,26.483-8.357,26.483-18.719
	c0-9.998-14.692-12.826-18.174-15.044"/>
<path fill="none" stroke="#FFFFFF" stroke-width="2" d="M257.63,65.82c-3.122,1.764-25.882,7.332-25.882,18.062
	c0,10.353,14.376,13.281,17.781,15.578"/>
<line fill="none" stroke="#FFFFFF" x1="234.778" y1="81.979" x2="261.652" y2="81.979"/>
<line fill="none" stroke="#FFFFFF" x1="262.973" y1="81.979" x2="262.973" y2="81.979"/>
<line fill="none" stroke="#FFFFFF" x1="234.528" y1="85.962" x2="261.401" y2="85.962"/>
<path fill="none" stroke="#FFFFFF" d="M259.493,89.451"/>
<path fill="none" stroke="#FFFFFF" d="M237.987,89.451"/>
<line fill="none" stroke="#FFFFFF" x1="237.209" y1="77.557" x2="258.717" y2="77.557"/>
<path fill="none" stroke="#FFFFFF" d="M258.968,94.235"/>
<path fill="none" stroke="#FFFFFF" stroke-width="2" d="M237.461,94.235"/>
<line fill="none" stroke="#FFFFFF" x1="237.461" y1="89.451" x2="258.968" y2="89.451"/>
<line fill="none" stroke="#FFFFFF" x1="241.386" y1="93.416" x2="256.105" y2="93.416"/>
<line fill="none" stroke="#FFFFFF" x1="241.956" y1="73.592" x2="255.353" y2="73.592"/>
<line fill="none" stroke="#FFFFFF" x1="235.482" y1="111.988" x2="262.355" y2="111.988"/>
<line fill="none" stroke="#FFFFFF" x1="235.231" y1="115.971" x2="262.105" y2="115.971"/>
<line fill="none" stroke="#FFFFFF" x1="237.912" y1="107.566" x2="259.42" y2="107.566"/>
<line fill="none" stroke="#FFFFFF" x1="238.164" y1="119.46" x2="259.671" y2="119.46"/>
<line fill="none" stroke="#FFFFFF" x1="243.411" y1="123.425" x2="254.164" y2="123.425"/>
<line fill="none" stroke="#FFFFFF" x1="242.659" y1="103.601" x2="256.057" y2="103.601"/>
<path fill="#FFFFFF" stroke="#000000" d="M318.654,78.222"/>
<path fill="#FFFFFF" stroke="#000000" d="M314.32,61.222"/>
<line fill="#FFFFFF" stroke="#FFFFFF" stroke-width="2" stroke-linecap="round" x1="54.904" y1="85.171" x2="54.918" y2="127.779"/>
<line fill="#FFFFFF" stroke="#FFFFFF" stroke-width="2" stroke-linecap="round" x1="54.902" y1="79.549" x2="54.904" y2="85.171"/>
<line fill="#FFFFFF" stroke="#FFFFFF" stroke-width="2" stroke-linecap="round" x1="65.004" y1="85.173" x2="65.004" y2="127.779"/>
<line fill="#FFFFFF" stroke="#FFFFFF" stroke-width="2" stroke-linecap="round" x1="65.004" y1="79.549" x2="65.004" y2="85.173"/>
<path fill="#FFFFFF" stroke="#FFFFFF" stroke-width="2" stroke-linecap="round" d="M54.918,128.739c0,2.634,2.255,4.765,5.043,4.765
	"/>
<path fill="#FFFFFF" stroke="#FFFFFF" stroke-width="2" stroke-linecap="round" d="M65.004,128.739c0,2.634-2.255,4.765-5.043,4.765
	"/>
<line fill="#FFFFFF" stroke="#FFFFFF" stroke-linecap="round" x1="54.904" y1="85.171" x2="65.004" y2="85.173"/>
<circle fill="#FFFFFF" cx="62.482" cy="73.633" r="1.349"/>
<circle fill="#FFFFFF" cx="59.961" cy="79.549" r="1.933"/>
<circle fill="#FFFFFF" cx="57.439" cy="70.934" r="1.349"/>
</svg>
