<?xml version="1.0" encoding="utf-8"?>
<!-- Generator: Adobe Illustrator 16.0.0, SVG Export Plug-In . SVG Version: 6.00 Build 0)  -->
<!DOCTYPE svg PUBLIC "-//W3C//DTD SVG 1.1//EN" "http://www.w3.org/Graphics/SVG/1.1/DTD/svg11.dtd">
<svg version="1.1"
	 id="svg1" xmlns:inkscape="http://www.inkscape.org/namespaces/inkscape" xmlns:sodipodi="http://sodipodi.sourceforge.net/DTD/sodipodi-0.dtd" xmlns:svg="http://www.w3.org/2000/svg" xmlns:rdf="http://www.w3.org/1999/02/22-rdf-syntax-ns#" xmlns:dc="http://purl.org/dc/elements/1.1/" xmlns:cc="http://creativecommons.org/ns#" sodipodi:docbase="H:\Leo\[ Interessantes ]\College Crests\Shields" sodipodi:docname="Trinity College (Cambridge) Crest.svg" inkscape:version="0.46" sodipodi:version="0.32" inkscape:output_extension="org.inkscape.output.svg.inkscape"
	 xmlns="http://www.w3.org/2000/svg" xmlns:xlink="http://www.w3.org/1999/xlink" x="0px" y="0px" width="302.973px"
	 height="352.777px" viewBox="0 0 302.973 352.777" enable-background="new 0 0 302.973 352.777" xml:space="preserve">
<defs>
	
	
		<inkscape:perspective  inkscape:vp_x="0 : 177.16536 : 1" inkscape:vp_y="0 : 1000 : 0" inkscape:vp_z="301.18109 : 177.16536 : 1" sodipodi:type="inkscape:persp3d" id="perspective2757" inkscape:persp3d-origin="150.59055 : 118.11024 : 1">
		</inkscape:perspective>
	
		<inkscape:perspective  inkscape:vp_x="0 : 526.18109 : 1" inkscape:vp_y="0 : 1000 : 0" inkscape:vp_z="744.09448 : 526.18109 : 1" sodipodi:type="inkscape:persp3d" id="perspective2879" inkscape:persp3d-origin="372.04724 : 350.78739 : 1">
		</inkscape:perspective>
</defs>
<g id="Layer_2">
</g>
<sodipodi:namedview  inkscape:zoom="1" showgrid="true" bordercolor="#666666" pagecolor="#ffffff" gridtolerance="0.4mm" borderopacity="1.0" inkscape:cx="40.890019" inkscape:cy="252.25138" id="base" inkscape:window-x="-8" inkscape:window-height="750" inkscape:window-width="1280" inkscape:pageshadow="2" inkscape:pageopacity="0.0" inkscape:current-layer="g1731" inkscape:document-units="mm" inkscape:window-y="-8">
	
		<inkscape:grid  color="#0000ff" type="xygrid" spacingy="10mm" empopacity="0.4" empspacing="5" empcolor="#0000ff" spacingx="10mm" opacity="0.2" originy="0mm" originx="0px" id="GridFromPre046Settings">
		</inkscape:grid>
</sodipodi:namedview>
<path id="path1534_1_" sodipodi:nodetypes="cccccccc" fill="#FFFFFF" stroke="#000000" d="M299,94.335
	c0.396-29.158-0.474-59.118-0.494-89.371c0.162-0.398,0.332-0.797,0.494-1.195c-0.165,0-0.329,0-0.494,0
	c-97.063,0-194.135,0-291.198,0c-0.165,0-0.329,0-0.494,0c0.162,0.398,0.332,0.797,0.494,1.195
	C7.287,35.215,6.616,65.173,7.224,94.33"/>
<path id="path1534" sodipodi:nodetypes="cccccccc" fill="#FFFFFF" stroke="#000000" d="M8.197,95.33
	c2.166,104.067,20.61,197.928,143.008,258.448C281.025,293.259,298.56,199.4,299.973,95.335"/>
<rect x="7.307" y="3.767" fill="#FF0000" stroke="#070404" stroke-width="0.7" stroke-linecap="round" width="291.46" height="90.563"/>
<path id="path3981" fill="#FF0000" stroke="#000000" stroke-width="0.5342" d="M7.001,93.332l291.767,0.998"/>
<path id="path3983_4_" fill="none" stroke="#000000" d="M226,303.331"/>
<path id="path3983_3_" fill="none" stroke="#000000" d="M152,184.331"/>
<path id="path3983_1_" fill="none" stroke="#000000" d="M78,303.331"/>
<path id="path3985_4_" fill="none" stroke="#000000" d="M49,267.331"/>
<path id="path3985_3_" fill="none" stroke="#000000" d="M152,98.331"/>
<path id="path3985_1_" fill="none" stroke="#000000" d="M255,267.331"/>
<path id="path4045" fill="none" stroke="#000000" stroke-width="2" d="M30.723,16.687H18.561"/>
<path id="path4047" fill="none" stroke="#000000" d="M17.854,41.613l1.237-24.926"/>
<g id="g4101">
	<g id="g4079">
		<path id="path4023" fill="none" stroke="#000000" stroke-width="2" d="M65.937,55.401c-0.171-0.043,2.287-0.881,3.006-1.062
			c0.896-0.224,1.877-0.188,2.651,0c0.806,0.195,1.533,0.649,2.121,1.237c0.706,0.706,1.311,1.157,1.769,1.768
			c0.364,0.486,0.733,0.911,1.063,1.237"/>
		<path id="path4029" fill="none" stroke="#000000" stroke-width="2" d="M66.291,31.889c0.249,0.125,2.136,0,3.006,0
			c1.174,0,1.875,0.055,2.828,0.53c0.896,0.449,1.895,0.505,2.649,0.885c0.652,0.325,1.14,0.606,1.771,1.236
			c0.84,0.84,1.084,1.505,1.942,2.65c0.791,1.056,0.854,1.655,0.354,2.65c-0.104,0.207-0.947,0.595-1.062,0.707"/>
		<g id="g4060">
			<g id="g4053">
				<path id="path4007" fill="none" stroke="#000000" stroke-width="2" d="M32.161,14.066l34.13,0.324l-0.707,57.629l-33.587-0.707
					L31.82,48.153l6.188,0.178l0.177,16.617l21.567-0.53l0.528-44.726l-22.449-0.354v14.319l-6.188-0.354L32.161,14.066z"/>
				<path id="path4009" fill="none" stroke="#000000" stroke-width="2" d="M60.281,19.692l-9.546,19.27
					c0.235,0.236,0.474,0.473,0.707,0.707c0.583,0.583,0.53,1.353,0.53,2.299c0,1.029-0.057,1.704-0.354,2.299
					c-0.359,0.718-1.317,1.035-2.121,1.236c-0.772,0.192-1.561-0.675-1.945-1.062c-0.501-0.501-0.898-1.122-1.061-1.769
					c-0.222-0.88,0.088-1.942,0.354-2.476c0.346-0.69,1.131-0.901,1.769-1.063c0.639-0.158,1.465-0.045,2.121-0.177"/>
				<path id="path4011" fill="none" stroke="#000000" stroke-width="2" d="M50.205,45.325l9.19,18.915"/>
				<path id="path4013" fill="none" stroke="#000000" stroke-width="2" d="M38.36,64.417l9.192-19.977"/>
				<path id="path4015" fill="none" stroke="#000000" stroke-width="2" d="M38.183,19.339l9.723,19.977"/>
			</g>
			<path id="path4017" fill="none" stroke="#000000" stroke-width="2" d="M32.174,14.92c0.972-0.243,0,2.003,0,3.005
				s0,2.005,0,3.006c0,1.062,0,2.121,0,3.183c0,0.885,0,1.769,0,2.651c0,0.954,0.003,1.932-0.177,2.65
				c-0.256,1.021-0.53,1.717-0.53,2.829c0,0.818-0.036,1.731-0.177,2.298L16.44,42.32l0.354,12.552l15.024-6.719"/>
			<path id="path4019" fill="none" stroke="#000000" stroke-width="2" d="M23.158,51.689l0.528,24.926l8.662-5.748"/>
			<path id="path4021" sodipodi:nodetypes="cccssssssssc" fill="none" stroke="#000000" stroke-width="2" d="M18.208,54.164
				l0.707,26.87l51.44,0.529c0,0.922,1.737-0.686,2.477-1.236c0.739-0.557,1.281-0.931,1.768-1.414
				c0.739-0.739,1.585-0.876,2.299-1.77c0.835-1.044,0.886-2.185,0.886-3.535c0-1.144-1.563-2.358-1.77-3.183
				c-0.154-0.613-1.283-0.994-1.769-1.236c-0.854-0.427-1.543-0.973-2.651-1.415c-0.872-0.35-2.448,0.053-3.358-0.177
				c-1.021-0.256-1.478-0.208-2.12-0.53"/>
			<path id="path4025" fill="none" stroke="#000000" stroke-width="2" d="M65.937,49.567c0.014,0.016,2.426-0.253,2.829-0.354
				c1.037-0.259,2.068,0.17,2.828,0.354c0.856,0.208,1.489,0.461,2.475,0.708c0.688,0.171,1.271,0.915,1.594,1.237
				c0.612,0.613,1.068,1.257,1.414,1.943c0.378,0.756,0.707,1.188,0.707,2.121c0,1.028-0.059,1.704-0.354,2.298
				c-0.155,0.311-0.836,0.476-1.061,0.53"/>
			<path id="path4027" fill="none" stroke="#000000" stroke-width="2" d="M65.937,37.9c-0.416,0.833,1.748-0.657,2.652-0.884
				c0.862-0.217,2.124,0,3.005,0c0.804,0,1.563,0.781,2.121,1.062c0.792,0.396,1.412,1.061,2.122,1.414
				c0.674,0.337,0.913,0.826,1.061,1.414"/>
			<path id="path4031" fill="none" stroke="#000000" stroke-width="2" d="M76.721,40.906l-0.53,11.138"/>
			<path id="path4033" fill="none" stroke="#000000" stroke-width="2" d="M65.937,20.753c-0.421,0.845,1.886,0,2.829,0
				c1.121,0,2.161,0.03,2.828,0.354c0.876,0.427,1.721,1.05,2.475,1.236c0.866,0.218,1.09,0.911,1.594,1.415
				c0.557,0.558,0.82,1,1.235,1.414"/>
			<path id="path4039" fill="none" stroke="#000000" stroke-width="2" d="M76.721,34.01l0.177-9.016
				c-0.133,0.133,1.591-1.428,1.591-3.006c0-1.216-0.299-1.372-0.528-2.299c-0.267-1.06-1.396-1.938-2.121-2.121
				c-0.779-0.194-2.253-1.469-2.652-1.769c-0.623-0.468-2.185-0.492-2.828-0.707c-0.699-0.233-1.938-0.044-2.475-0.177
				c-0.663-0.166-0.599-0.371-1.237-0.529"/>
			<path id="path4041" fill="none" stroke="#000000" stroke-width="2" d="M38.007,33.481l-2.573,4.064l4.695-1.591l0.177,9.369
				l-4.243-1.062l2.121,3.712"/>
			<path id="path4043" fill="none" stroke="#000000" stroke-width="2" d="M31.467,36.133l0.354,8.662"/>
			<path id="path4049" fill="none" stroke="#000000" stroke-width="2" d="M32.161,14.066c-0.53,0.796-1.667,2.622-2.108,3.505
				c-0.428,0.854-0.9,1.245-1.592,1.592c-0.873,0.438-1.479,1.004-2.651,1.591c-0.731,0.367-1.832,0.178-2.649,0.178v18.03"/>
		</g>
	</g>
	<path id="path4051" fill="none" stroke="#000000" stroke-width="2" d="M75.661,57.699v12.021"/>
</g>
<path id="path4125" fill="none" stroke="#000000" d="M79.019,37.9c0.065,0.776-0.559,1.796-1.061,2.299
	c-0.345,0.343-0.305,0.417-0.884,0.707"/>
<path id="path4277" fill="#FF0000" stroke="#070404" stroke-width="2" stroke-linecap="round" d="M224.119,298.773
	c-28.364-45.947-70.896-115.279-71.379-115.279c-0.355,0-16.796,25.947-36.528,57.66c-19.735,31.714-37.201,60.146-37.591,60.743
	c-0.444,0.677-2.261-1.412-4.852-3.911c-4.763-4.594-18.654-21.915-21.063-26.144l-2.623-3.851l51.813-84.326l50.813-83.324
	l2.397,3.824c1.319,2.104,23.9,39.15,50.183,82.326c27.537,45.239,52.021,83.062,51.189,82.111
	c-2.884,7.783-23.134,29.533-29.94,34.728L224.119,298.773z"/>
<path id="path4353" fill="#FFFF00" stroke="#070404" stroke-width="0.2475" stroke-linecap="round" d="M0,0"/>
<path id="path2598" fill="#FFFF00" stroke="#070404" stroke-width="0.2475" stroke-linecap="round" d="M55.085,53.843
	c-2.114-4.328-3.738-8.075-3.609-8.325c0.128-0.251,0.464-0.854,0.744-1.341c0.67-1.157,0.658-2.966-0.029-4.414L51.639,38.6
	l3.892-7.729l3.894-7.729l-0.027,11.489c-0.015,6.319-0.125,14.999-0.246,19.287l-0.22,7.796L55.085,53.843z"/>
<path id="path2600" fill="#FFFF00" stroke="#070404" stroke-linecap="round" d="M43.851,29.433l-4.427-9.122l8.338-0.104
	c4.586-0.059,8.999-0.012,9.808,0.104l1.471,0.21l-4.359,8.911C48.81,41.426,49.673,41.426,43.851,29.433L43.851,29.433z"/>
<path id="path2602" fill="#FFFF00" stroke="#070404" stroke-linecap="round" d="M38.829,58.448
	c-0.126-1.491-0.229-4.646-0.229-7.011c0-3.23-0.143-4.458-0.519-4.983c-0.952-1.331-1.029-1.314,1.049-0.755
	c0.866,0.232,1.679,0.274,1.787,0.167c0.106-0.108,0.086-2.586-0.051-5.507l-0.247-5.31l-1.407,0.496
	c-1.991,0.703-2.635,1.347-1.81,0.186c0.667-0.937,1.199-2.271,1.229-7.696l-0.271-7.282l4.487,9.813
	c3.668,7.438,4.124,8.555,3.688,9.039c-0.831,0.919-0.998,2.639-0.379,3.882l0.563,1.13l-3.745,8.178
	c-2.061,4.498-3.784,8.222-3.831,8.272S38.955,59.94,38.829,58.448L38.829,58.448z"/>
<path id="path2606" fill="#FFFF00" stroke="#070404" stroke-linecap="round" d="M39.306,64.117c0-0.146,7.666-16.923,8.175-17.891
	c0.281-0.533,0.443-0.547,1.455-0.121c1.023,0.431,1.563,1.352,5.284,9.016c2.627,5.412,3.988,8.585,3.719,8.668
	C57.366,63.968,39.306,64.285,39.306,64.117L39.306,64.117z"/>
<path id="path2632" fill="#FFFF00" stroke="#070404" stroke-width="0.2475" stroke-linecap="round" d="M0,0"/>
<path id="path2634" fill="#FFFF00" stroke="#070404" stroke-width="0.2475" stroke-linecap="round" d="M0,0"/>
<path id="path2636" fill="#FFFF00" stroke="#070404" stroke-width="0.2475" stroke-linecap="round" d="M24.16,73.123
	c-0.105-1.206-0.102-6.421-0.182-11.515l-0.227-9.205c0,0,3.133-1.444,4.641-2.141l2.844-1.22l0.109,10.97l0.156,10.766
	l-3.656,2.406l-3.625,2.453L24.16,73.123z"/>
<path id="path2638" fill="#FFFF00" stroke="#070404" stroke-linecap="round" d="M49.736,71.027
	c-5.25-0.133-11.256-0.262-13.347-0.286l-3.801-0.048v-10.96V48.772l1.854,0.006c3.668-0.063,3.199-0.607,3.029,8.786l0.111,8.109
	l4.838-0.144c2.661-0.079,7.8-0.239,11.42-0.355l6.582-0.213l0.262-22.788c0.146-12.532,0.199-22.852,0.121-22.93
	c-0.077-0.077-5.424-0.252-11.882-0.39l-11.741-0.247v7.127v7.127h-2.512h-2.513l0.222-1.503c0.121-0.825,0.056-4.726,0.223-8.711
	c0.166-3.985-0.021-7.91,0-7.958c0.024-0.049,7.939,0.495,16.8,0.495h16.108l-0.223,27.487c-0.123,15.119-0.305,27.769-0.399,28.107
	c-0.15,0.527-0.575,0.608-2.893,0.553C60.505,71.298,54.987,71.16,49.736,71.027L49.736,71.027z"/>
<path id="path2640" fill="#FFFF00" stroke="#070404" stroke-width="0.2475" stroke-linecap="round" d="M17.21,49.873
	c-0.04-2.141-0.253-7.203-0.253-7.203l7.501-3.787c4.483-2.364,7.377-4.045,7.452-4.416c0.104-0.52,0.016-0.641,0.016-0.641
	c1.197,0.136,5.126,0.28,5.126,0.28s-2.908,4.412-2.746,4.412c0.161,0,5.401-2.144,5.401-2.144s-0.048,2.447-0.048,4.4l0.048,3.876
	l-2.11-0.577c-1.173-0.297-2.407-0.497-2.407-0.497s0.583,1.113,1.222,2.228l1.188,2.066l-3.375-0.188
	c-1.646-0.126-2.802-0.09-2.983,0.077c-0.321,0.296-13.574,6.4-13.905,6.4C17.241,54.164,17.21,49.873,17.21,49.873z M32.347,43.576
	c-0.031-0.738-0.184-2.736-0.187-4.438c-0.003-2.855,0.021-3.095-0.635-3.095c-0.807,0-0.731,0.821-0.337,5.922
	c0.202,2.598,0.166,2.917,0.789,2.917C32.594,44.884,32.399,44.795,32.347,43.576z"/>
<path id="path2642" fill="#FFFF00" stroke="#070404" stroke-width="0.2475" stroke-linecap="round" d="M23.751,29.621v-8.072h1.063
	c2.018-0.597,3.729-1.646,5.416-3.482l1.414-2.042l-0.309,5.701c-0.103,2.917-0.005,6.726-0.112,8.674l-0.25,3.833l-3.583,1.899
	l-3.638,1.851L23.751,29.621L23.751,29.621z"/>
<path id="path2648" fill="#FFFF00" stroke="#070404" stroke-width="0.2475" stroke-linecap="round" d="M73.155,67.839
	c-0.729-0.387-2.24-0.781-3.356-0.881c-3.878-0.343-3.748-0.242-3.491-2.699c0.123-1.186,0.226-3.551,0.226-5.256V55.9l1.769-0.587
	c2.248-0.746,3.568-0.465,5.344,1.14l1.374,1.241v5.438c0,2.991-0.119,5.433-0.265,5.425C74.604,68.548,73.886,68.224,73.155,67.839
	L73.155,67.839z"/>
<path id="path2650" fill="#FFFF00" stroke="#070404" stroke-width="0.2475" stroke-linecap="round" d="M74.831,55.835
	c-2.292-2.326-4.082-2.711-7.505-1.611c-0.767,0.244-0.798,0.173-0.798-1.851c0-1.883,0.084-2.126,0.798-2.315
	c1.754-0.472,4.874,0.063,6.985,1.192c1.746,0.936,3.615,5.479,2.529,6.147C76.681,57.498,75.775,56.795,74.831,55.835
	L74.831,55.835z"/>
<path id="path2652" fill="#FFFF00" stroke="#070404" stroke-width="0.2475" stroke-linecap="round" d="M74.913,50.021
	c-1.121-0.819-5.171-1.649-6.836-1.399l-1.549,0.231v-5.124v-5.124l1.149-0.48c2.03-0.852,3.876-0.566,6.256,0.959l2.152,1.381
	l-0.23,4.95c-0.127,2.724-0.249,4.978-0.271,5.009C75.563,50.456,75.26,50.275,74.913,50.021L74.913,50.021z"/>
<path id="path2654" fill="#FFFF00" stroke="#070404" stroke-width="0.2475" stroke-linecap="round" d="M74.862,38.113
	c-2.257-1.577-2.616-1.715-4.529-1.715c-1.146,0-2.4,0.172-2.793,0.383c-0.396,0.211-0.79,0.307-0.885,0.214
	c-0.093-0.093-0.059-1.14,0.076-2.326l0.244-2.158h1.667c1.73,0,5.2,1.027,6.626,1.963c0.937,0.611,2.929,3.237,2.929,3.855
	c0,0.227-0.196,0.654-0.439,0.955C77.369,39.76,77.01,39.615,74.862,38.113L74.862,38.113z"/>
<path id="path2656" fill="#FFFF00" stroke="#070404" stroke-width="0.2475" stroke-linecap="round" d="M73.601,32.226
	c-1.264-0.451-3.293-0.913-4.508-1.026l-2.21-0.206v-4.723v-4.724h1.998c2.406,0,5.277,1.269,6.443,2.845
	c0.7,0.949,0.765,1.403,0.675,4.853l-0.103,3.803L73.601,32.226z"/>
<g id="g2660">
	<path id="path2604" fill="#FFFF00" stroke="#070404" stroke-width="0.2475" stroke-linecap="round" d="M48,43.796
		c-1.534-1.822-1.065-3.622,1.047-4.02c1.708-0.319,2.281,0.219,2.281,2.146c0,1.076-0.218,1.764-0.708,2.255
		C49.647,45.149,49.068,45.065,48,43.796L48,43.796z"/>
	<path id="path2644" fill="#FFFF00" stroke="#070404" stroke-width="0.2475" stroke-linecap="round" d="M38.599,80.576
		c-10.403-0.125-19.131-0.033-19.158-0.063c-0.024-0.03-0.13-4.32-0.25-9.328s-0.203-10.707-0.313-12.703l-0.126-3.892l1.845-0.78
		l2.031-0.938l0.281,11.53c0.138,6.269,0.146,11.854,0.206,12.391l0.042,0.798l8.771-5.816l14.624,0.492
		c8.167,0.114,15.923,0.302,17.235,0.415l2.387,0.204v-2.438v-2.438l2.387,0.132c4.472,0.245,8.573,3.271,8.573,6.321
		c0,1.413-0.588,2.138-3.632,4.469l-2.634,2.018l-6.68-0.07C60.519,80.837,49.003,80.702,38.599,80.576L38.599,80.576z"/>
	<path id="path2646" fill="#FFFF00" stroke="#070404" stroke-width="0.2475" stroke-linecap="round" d="M19.556,17.306l4.122,0.034
		c2.082,0.021,5.371-0.166,5.836-0.034c0.813,0.229-0.842,1.386-2.333,2.386c-0.996,0.669-1.708,1.062-2.786,0.832l-1.883-0.213
		l0.126,18.115l-4.166,2.302L19.556,17.306z"/>
	<path id="path2658" fill="#FFFF00" stroke="#070404" stroke-width="0.2475" stroke-linecap="round" d="M75.948,23.014
		c-1.608-1.683-4.858-2.966-7.146-2.822l-1.92,0.119l0.001-2.515v-2.515l2.74,0.438c2.159,0.347,3.246,0.757,5.124,1.935
		c1.987,1.247,2.452,1.725,2.799,2.883c0.337,1.123,0.319,1.59-0.091,2.455L76.95,24.06L75.948,23.014z"/>
</g>
<path id="path2770" fill="#FFFF00" stroke="#070404" stroke-width="0.1237" stroke-linecap="round" d="M0,0"/>
<path id="path2798" fill="#FFFF00" stroke="#070404" stroke-width="0.1237" stroke-linecap="round" d="M0,0"/>
<path id="path2806" fill="#FFFF00" stroke="#070404" stroke-width="0.0109" stroke-linecap="round" d="M0,0"/>
<path id="path2824" fill="#FFFF00" stroke="#070404" stroke-width="0.0109" stroke-linecap="round" d="M0,0"/>
<path id="path2850" fill="#FF0000" stroke="#070404" stroke-width="0.0219" stroke-linecap="round" d="M0,0"/>
<path id="path2852" fill="#FF0000" stroke="#070404" stroke-width="0.0219" stroke-linecap="round" d="M0,0"/>
<path id="path2864" fill="#FF0000" stroke="#070404" stroke-width="0.1237" stroke-linecap="round" d="M0,0"/>
<path id="path2868" fill="#FF0000" stroke="#070404" stroke-width="0.1237" stroke-linecap="round" d="M0,0"/>
<path id="path2898" fill="#FFFF00" stroke="#070404" stroke-width="0.1237" stroke-linecap="round" d="M0,0"/>
<path id="path4045_1_" fill="none" stroke="#000000" stroke-width="2" d="M235.723,16.687h-12.162"/>
<path id="path4047_1_" fill="none" stroke="#000000" d="M222.854,41.613l1.237-24.926"/>
<g id="g4101_1_">
	<g id="g4079_1_">
		<path id="path4023_1_" fill="none" stroke="#000000" stroke-width="2" d="M270.937,55.401c-0.171-0.043,2.287-0.881,3.006-1.062
			c0.896-0.224,1.877-0.188,2.651,0c0.806,0.195,1.533,0.649,2.121,1.237c0.706,0.706,1.311,1.157,1.769,1.768
			c0.364,0.486,0.733,0.911,1.063,1.237"/>
		<path id="path4029_1_" fill="none" stroke="#000000" stroke-width="2" d="M271.291,31.889c0.249,0.125,2.136,0,3.006,0
			c1.174,0,1.875,0.055,2.828,0.53c0.896,0.449,1.895,0.505,2.649,0.885c0.652,0.325,1.14,0.606,1.771,1.236
			c0.84,0.84,1.084,1.505,1.942,2.65c0.791,1.056,0.854,1.655,0.354,2.65c-0.104,0.207-0.947,0.595-1.062,0.707"/>
		<g id="g4060_1_">
			<g id="g4053_1_">
				<path id="path4007_1_" fill="none" stroke="#000000" stroke-width="2" d="M237.161,14.066l34.13,0.324l-0.707,57.629
					l-33.587-0.707l-0.179-23.158l6.188,0.178l0.177,16.617l21.567-0.53l0.528-44.726l-22.449-0.354v14.319l-6.188-0.354
					L237.161,14.066z"/>
				<path id="path4009_1_" fill="none" stroke="#000000" stroke-width="2" d="M265.281,19.692l-9.546,19.27
					c0.235,0.236,0.474,0.473,0.707,0.707c0.583,0.583,0.53,1.353,0.53,2.299c0,1.029-0.057,1.704-0.354,2.299
					c-0.359,0.718-1.317,1.035-2.121,1.236c-0.772,0.192-1.561-0.675-1.945-1.062c-0.501-0.501-0.898-1.122-1.063-1.769
					c-0.22-0.88,0.09-1.942,0.354-2.476c0.346-0.69,1.131-0.901,1.769-1.063c0.639-0.158,1.465-0.045,2.121-0.177"/>
				<path id="path4011_1_" fill="none" stroke="#000000" stroke-width="2" d="M255.205,45.325l9.19,18.915"/>
				<path id="path4013_1_" fill="none" stroke="#000000" stroke-width="2" d="M243.36,64.417l9.192-19.977"/>
				<path id="path4015_1_" fill="none" stroke="#000000" stroke-width="2" d="M243.183,19.339l9.723,19.977"/>
			</g>
			<path id="path4017_1_" fill="none" stroke="#000000" stroke-width="2" d="M237.174,14.92c0.972-0.243,0,2.003,0,3.005
				s0,2.005,0,3.006c0,1.062,0,2.121,0,3.183c0,0.885,0,1.769,0,2.651c0,0.954,0.003,1.932-0.177,2.65
				c-0.256,1.021-0.53,1.717-0.53,2.829c0,0.818-0.036,1.731-0.177,2.298L221.44,42.32l0.354,12.552l15.024-6.719"/>
			<path id="path4019_1_" fill="none" stroke="#000000" stroke-width="2" d="M228.158,51.689l0.528,24.926l8.662-5.748"/>
			<path id="path4021_1_" sodipodi:nodetypes="cccssssssssc" fill="none" stroke="#000000" stroke-width="2" d="M223.208,54.164
				l0.707,26.87l51.44,0.529c0,0.922,1.737-0.686,2.477-1.236c0.739-0.557,1.281-0.931,1.768-1.414
				c0.739-0.739,1.585-0.876,2.299-1.77c0.835-1.044,0.886-2.185,0.886-3.535c0-1.144-1.563-2.358-1.77-3.183
				c-0.154-0.613-1.283-0.994-1.769-1.236c-0.854-0.427-1.543-0.973-2.651-1.415c-0.872-0.35-2.448,0.053-3.358-0.177
				c-1.021-0.256-1.478-0.208-2.122-0.53"/>
			<path id="path4025_1_" fill="none" stroke="#000000" stroke-width="2" d="M270.937,49.567c0.014,0.016,2.426-0.253,2.829-0.354
				c1.037-0.259,2.068,0.17,2.828,0.354c0.856,0.208,1.489,0.461,2.475,0.708c0.688,0.171,1.271,0.915,1.594,1.237
				c0.612,0.613,1.068,1.257,1.414,1.943c0.378,0.756,0.707,1.188,0.707,2.121c0,1.028-0.059,1.704-0.354,2.298
				c-0.155,0.311-0.836,0.476-1.061,0.53"/>
			<path id="path4027_1_" fill="none" stroke="#000000" stroke-width="2" d="M270.937,37.9c-0.416,0.833,1.748-0.657,2.652-0.884
				c0.862-0.217,2.124,0,3.005,0c0.804,0,1.563,0.781,2.121,1.062c0.792,0.396,1.412,1.061,2.122,1.414
				c0.674,0.337,0.913,0.826,1.061,1.414"/>
			<path id="path4031_1_" fill="none" stroke="#000000" stroke-width="2" d="M281.721,40.906l-0.53,11.138"/>
			<path id="path4033_1_" fill="none" stroke="#000000" stroke-width="2" d="M270.937,20.753c-0.421,0.845,1.886,0,2.829,0
				c1.121,0,2.161,0.03,2.828,0.354c0.876,0.427,1.721,1.05,2.475,1.236c0.866,0.218,1.09,0.911,1.594,1.415
				c0.557,0.558,0.82,1,1.235,1.414"/>
			<path id="path4039_1_" fill="none" stroke="#000000" stroke-width="2" d="M281.721,34.01l0.177-9.016
				c-0.133,0.133,1.591-1.428,1.591-3.006c0-1.216-0.299-1.372-0.528-2.299c-0.267-1.06-1.396-1.938-2.121-2.121
				c-0.779-0.194-2.253-1.469-2.652-1.769c-0.623-0.468-2.185-0.492-2.828-0.707c-0.699-0.233-1.938-0.044-2.475-0.177
				c-0.663-0.166-0.599-0.371-1.237-0.529"/>
			<path id="path4041_1_" fill="none" stroke="#000000" stroke-width="2" d="M243.007,33.481l-2.573,4.064l4.695-1.591l0.177,9.369
				l-4.243-1.062l2.121,3.712"/>
			<path id="path4043_1_" fill="none" stroke="#000000" stroke-width="2" d="M236.467,36.133l0.354,8.662"/>
			<path id="path4049_1_" fill="none" stroke="#000000" stroke-width="2" d="M237.161,14.066c-0.53,0.796-1.667,2.622-2.108,3.505
				c-0.428,0.854-0.9,1.245-1.592,1.592c-0.873,0.438-1.479,1.004-2.651,1.591c-0.731,0.367-1.832,0.178-2.649,0.178v18.03"/>
		</g>
	</g>
	<path id="path4051_1_" fill="none" stroke="#000000" stroke-width="2" d="M280.661,57.699v12.021"/>
</g>
<path id="path4125_1_" fill="none" stroke="#000000" d="M284.019,37.9c0.065,0.776-0.559,1.796-1.061,2.299
	c-0.343,0.343-0.305,0.417-0.884,0.707"/>
<path id="path2598_1_" fill="#FFFF00" stroke="#070404" stroke-width="0.2475" stroke-linecap="round" d="M260.085,53.843
	c-2.114-4.328-3.738-8.075-3.609-8.325c0.128-0.251,0.464-0.854,0.744-1.341c0.67-1.157,0.658-2.966-0.029-4.414l-0.552-1.162
	l3.892-7.729l3.894-7.729l-0.027,11.489c-0.015,6.319-0.125,14.999-0.246,19.287l-0.22,7.796L260.085,53.843z"/>
<path id="path2600_1_" fill="#FFFF00" stroke="#070404" stroke-linecap="round" d="M248.851,29.433l-4.427-9.122l8.338-0.104
	c4.586-0.059,8.999-0.012,9.808,0.104l1.471,0.21l-4.359,8.911C253.81,41.426,254.673,41.426,248.851,29.433L248.851,29.433z"/>
<path id="path2602_1_" fill="#FFFF00" stroke="#070404" stroke-linecap="round" d="M243.829,58.448
	c-0.126-1.491-0.229-4.646-0.229-7.011c0-3.23-0.143-4.458-0.519-4.983c-0.952-1.331-1.028-1.314,1.049-0.755
	c0.866,0.232,1.679,0.274,1.787,0.167c0.106-0.108,0.086-2.586-0.051-5.507l-0.247-5.31l-1.407,0.496
	c-1.991,0.703-2.636,1.347-1.81,0.186c0.666-0.937,1.198-2.271,1.229-7.696l-0.271-7.282l4.487,9.813
	c3.668,7.438,4.124,8.555,3.688,9.039c-0.831,0.919-0.998,2.639-0.379,3.882l0.563,1.13l-3.745,8.178
	c-2.061,4.498-3.784,8.222-3.831,8.272S243.955,59.94,243.829,58.448L243.829,58.448z"/>
<path id="path2606_1_" fill="#FFFF00" stroke="#070404" stroke-linecap="round" d="M244.306,64.117
	c0-0.146,7.666-16.923,8.175-17.891c0.281-0.533,0.443-0.547,1.455-0.121c1.023,0.431,1.563,1.352,5.284,9.016
	c2.627,5.412,3.988,8.585,3.719,8.668C262.366,63.968,244.306,64.285,244.306,64.117L244.306,64.117z"/>
<path id="path2636_1_" fill="#FFFF00" stroke="#070404" stroke-width="0.2475" stroke-linecap="round" d="M229.16,73.123
	c-0.105-1.206-0.102-6.421-0.182-11.515l-0.227-9.205c0,0,3.133-1.444,4.641-2.141l2.844-1.22l0.109,10.97l0.156,10.766
	l-3.656,2.406l-3.625,2.453L229.16,73.123z"/>
<path id="path2638_1_" fill="#FFFF00" stroke="#070404" stroke-linecap="round" d="M254.736,71.027
	c-5.25-0.133-11.256-0.262-13.347-0.286l-3.801-0.048v-10.96V48.772l1.854,0.006c3.668-0.063,3.199-0.607,3.029,8.786l0.111,8.109
	l4.838-0.144c2.661-0.079,7.8-0.239,11.42-0.355l6.582-0.213l0.262-22.788c0.146-12.532,0.199-22.852,0.121-22.93
	c-0.077-0.077-5.424-0.252-11.882-0.39l-11.741-0.247v7.127v7.127h-2.512h-2.513l0.222-1.503c0.121-0.825,0.056-4.726,0.223-8.711
	c0.166-3.985-0.021-7.91,0-7.958c0.024-0.049,7.939,0.495,16.8,0.495h16.108l-0.223,27.487c-0.123,15.119-0.305,27.769-0.399,28.107
	c-0.148,0.527-0.575,0.608-2.893,0.553C265.505,71.298,259.987,71.16,254.736,71.027L254.736,71.027z"/>
<path id="path2640_1_" fill="#FFFF00" stroke="#070404" stroke-width="0.2475" stroke-linecap="round" d="M222.21,49.873
	c-0.04-2.141-0.253-7.203-0.253-7.203l7.501-3.787c4.483-2.364,7.377-4.045,7.452-4.416c0.104-0.52,0.016-0.641,0.016-0.641
	c1.197,0.136,5.127,0.28,5.127,0.28s-2.908,4.412-2.746,4.412c0.161,0,5.401-2.144,5.401-2.144s-0.048,2.447-0.048,4.4l0.048,3.876
	l-2.11-0.577c-1.173-0.297-2.407-0.497-2.407-0.497s0.583,1.113,1.222,2.228l1.188,2.066l-3.375-0.188
	c-1.646-0.126-2.802-0.09-2.982,0.077c-0.322,0.296-13.575,6.4-13.906,6.4C222.241,54.164,222.21,49.873,222.21,49.873z
	 M237.347,43.576c-0.031-0.738-0.184-2.736-0.187-4.438c-0.005-2.855,0.021-3.095-0.635-3.095c-0.807,0-0.731,0.821-0.337,5.922
	c0.202,2.598,0.166,2.917,0.789,2.917C237.594,44.884,237.399,44.795,237.347,43.576z"/>
<path id="path2642_1_" fill="#FFFF00" stroke="#070404" stroke-width="0.2475" stroke-linecap="round" d="M228.751,29.621v-8.072
	h1.063c2.018-0.597,3.729-1.646,5.416-3.482l1.414-2.042l-0.309,5.701c-0.103,2.917-0.005,6.726-0.112,8.674l-0.25,3.833
	l-3.584,1.899l-3.638,1.851V29.621z"/>
<path id="path2648_1_" fill="#FFFF00" stroke="#070404" stroke-width="0.2475" stroke-linecap="round" d="M278.155,67.839
	c-0.729-0.387-2.24-0.781-3.356-0.881c-3.878-0.343-3.748-0.242-3.491-2.699c0.123-1.186,0.226-3.551,0.226-5.256V55.9l1.769-0.587
	c2.248-0.746,3.568-0.465,5.344,1.14l1.374,1.241v5.438c0,2.991-0.119,5.433-0.265,5.425
	C279.604,68.548,278.886,68.224,278.155,67.839L278.155,67.839z"/>
<path id="path2650_1_" fill="#FFFF00" stroke="#070404" stroke-width="0.2475" stroke-linecap="round" d="M279.831,55.835
	c-2.292-2.326-4.082-2.711-7.505-1.611c-0.767,0.244-0.798,0.173-0.798-1.851c0-1.883,0.084-2.126,0.798-2.315
	c1.754-0.472,4.874,0.063,6.985,1.192c1.746,0.936,3.615,5.479,2.529,6.147C281.681,57.498,280.775,56.795,279.831,55.835
	L279.831,55.835z"/>
<path id="path2652_1_" fill="#FFFF00" stroke="#070404" stroke-width="0.2475" stroke-linecap="round" d="M279.913,50.021
	c-1.121-0.819-5.171-1.649-6.836-1.399l-1.549,0.231v-5.124v-5.124l1.149-0.48c2.03-0.852,3.876-0.566,6.256,0.959l2.152,1.381
	l-0.23,4.95c-0.127,2.724-0.249,4.978-0.271,5.009C280.563,50.456,280.26,50.275,279.913,50.021L279.913,50.021z"/>
<path id="path2654_1_" fill="#FFFF00" stroke="#070404" stroke-width="0.2475" stroke-linecap="round" d="M279.862,38.113
	c-2.257-1.577-2.616-1.715-4.529-1.715c-1.146,0-2.4,0.172-2.793,0.383c-0.396,0.211-0.79,0.307-0.885,0.214
	c-0.093-0.093-0.059-1.14,0.076-2.326l0.244-2.158h1.667c1.73,0,5.2,1.027,6.626,1.963c0.937,0.611,2.929,3.237,2.929,3.855
	c0,0.227-0.196,0.654-0.439,0.955C282.369,39.76,282.01,39.615,279.862,38.113L279.862,38.113z"/>
<path id="path2656_1_" fill="#FFFF00" stroke="#070404" stroke-width="0.2475" stroke-linecap="round" d="M278.601,32.226
	c-1.264-0.451-3.293-0.913-4.508-1.026l-2.21-0.206v-4.723v-4.724h1.998c2.406,0,5.277,1.269,6.443,2.845
	c0.7,0.949,0.765,1.403,0.675,4.853l-0.103,3.803L278.601,32.226z"/>
<g id="g2660_1_">
	<path id="path2604_1_" fill="#FFFF00" stroke="#070404" stroke-width="0.2475" stroke-linecap="round" d="M253,43.796
		c-1.534-1.822-1.065-3.622,1.047-4.02c1.708-0.319,2.281,0.219,2.281,2.146c0,1.076-0.218,1.764-0.708,2.255
		C254.647,45.149,254.068,45.065,253,43.796L253,43.796z"/>
	<path id="path2644_1_" fill="#FFFF00" stroke="#070404" stroke-width="0.2475" stroke-linecap="round" d="M243.599,80.576
		c-10.403-0.125-19.131-0.033-19.158-0.063c-0.024-0.03-0.13-4.32-0.25-9.328s-0.203-10.707-0.313-12.703l-0.126-3.892l1.845-0.78
		l2.031-0.938l0.281,11.53c0.138,6.269,0.146,11.854,0.204,12.391l0.042,0.798l8.773-5.816l14.623,0.492
		c8.167,0.114,15.923,0.302,17.235,0.415l2.387,0.204v-2.438v-2.438l2.387,0.132c4.47,0.245,8.573,3.271,8.573,6.321
		c0,1.413-0.588,2.138-3.632,4.469l-2.634,2.018l-6.68-0.07C265.519,80.837,254.003,80.702,243.599,80.576L243.599,80.576z"/>
	<path id="path2646_1_" fill="#FFFF00" stroke="#070404" stroke-width="0.2475" stroke-linecap="round" d="M224.556,17.306
		l4.121,0.034c2.082,0.021,5.371-0.166,5.836-0.034c0.813,0.229-0.842,1.386-2.332,2.386c-0.996,0.669-1.709,1.062-2.786,0.832
		l-1.883-0.213l0.126,18.115l-4.166,2.302L224.556,17.306z"/>
	<path id="path2658_1_" fill="#FFFF00" stroke="#070404" stroke-width="0.2475" stroke-linecap="round" d="M280.948,23.014
		c-1.608-1.683-4.858-2.966-7.146-2.822l-1.92,0.119l0.001-2.515v-2.515l2.74,0.438c2.157,0.347,3.246,0.757,5.124,1.935
		c1.987,1.247,2.45,1.725,2.799,2.883c0.337,1.123,0.317,1.59-0.091,2.455l-0.508,1.067L280.948,23.014z"/>
</g>
<g>
	<path id="path3263" fill="#FFE000" d="M131.515,58.083c4.658,0.938,9.781,1.057,14.765-0.627
		c10.673-3.602,16.803-5.245,21.556-5.583c-0.17-0.002-7.18,4.075-6.472,6.905c0.707,2.83,4.921,2.562,6.772,2.763
		c1.853,0.203,3.773,2.394,1.313,4.077c-2.462,1.685-4.616,5.862-7.413,5.931c-2.799,0.068-2.091-2.089-2.933-2.931
		c-0.177-0.177-0.45-0.344-0.929-0.474c-0.149,0.001-4.766-3.94-8.237,1.483c0,0,3.115-0.956,4.38,0.971
		c-0.194,1.717,1.521,1.451,2.123,2.298c0,0-2.658-1.92-4.378,0.191c-2.683-1.098-3.595-0.042-4.308,1.57
		c-0.552,1.522,0.052,2.882,0.855,3.902c0.646-1.616,1.641-2.042,3.286-1.986c0.603,0.768,1.567,1.253,2.353,1.216
		c0.151,0.156-2.944,0.681-1.183,5.136c0,0,3.025-3.669,6.063-1.905c0.012,0.047,0.798,0.644,1.346-0.787
		c0.549-1.429,2.099-2.813,3.1-2.119c1.001,0.69,0.866,3.206,5.434,1.876l0,0c0,0-2.711-2.898,0.783-5.481
		c-0.047,0.434-0.104,0.756-0.21,1.084c-0.505,1.551,1.279,2.898,1.279,2.898s0.136-2.562,1.518-3.304
		c0.599-0.319,0.979-1.262,1.245-2.417c0.067-0.126,1.417,0.615,1.687,3.396c0,0,2.698-4.242,1.081-9.868
		c0,0,2.623,2.883,2.79,5.169c0,0,4.789-6.386-0.501-11.483c1.205,0.111,1.884-0.436,2.74-1.071c0.381-1.072-0.145-2.217-1.313-2.55
		c-1.167-0.333-1.452,0.597-2.478,0.716c-1.278,0.148-1.573-2.287,0.762-2.121c0.592,0.043,1.063-0.308,1.705-0.888
		c3.776,1.743,6.271,3.828,6.207,3.751c3.879,3.103,6.482,1.545,10.102,1.545c4.433,0,4.1,2.572,2.572,5.146
		c-1.522,2.573-3.002,6.339-3.002,6.339s-0.855,2.764-1.811,1.382s-2.192-4.384-4.313-3.55c-0.119,0.07-2.55-2.788-5.552,0.978
		c0,0,2.573-1.145,3.559,0.651c-0.39,0.85-0.39,1.754,0.11,2.685c-0.916,0.174-1.516,0.691-2.138,1.282
		c-0.006-0.044-3.725,0.146-3.58,2.958c0.143,2.813,2.239,3.574,2.239,3.574s-0.717-2.145,1.931-3.088
		c0.877,1.047,1.938,1.521,3.312,0.932c-0.011,0.483,0.021,0.825,0.097,1.204c0.715,3.525,3.098,3.432,3.098,3.432
		s-0.524-2.287,1.459-3.302c0.521,0.317,0.956,0.494,1.4,0.396c0,0,1,0.049,1.048-0.189c0.048-0.237-0.097-2.146,0.571-2.716
		c0.668-0.571,0.856-1.048,2.572-1.048c0,0,2.813,3.717,5.051,1.811c0,0-3.002-3.907-2.285-6.719c0,0,0.855,3.099,3.05,3.479
		c0,0,0.855-0.953,0.286-3.24c-0.572-2.286-0.668-3.669-0.524-5.003c0,0,1.524,4.67,4.956,4.003
		c3.431-0.667-1.335-0.048-1.153-6.655c0.535,0.426,1.563,0.672,2.964,0.271l0,0c0,0-0.477-7.672-5.955-8.911
		c0,0,3.752-0.281,2.504-3.65c0,0-7.277,2.83-13.586-4.986c-0.547-0.605,7.03,3.396,12.226-2.369
		c5.194-5.767-1.382-10.198-4.193-11.39c-2.811-1.19-16.011-1.954-24.49-0.523c-3.651,0.616-16.081,0.878-26.297,0.276
		c0,0-5.32-0.276-5.061-3.255c0.263-2.979,2.66-5.046,6.233-4.046c3.572,1.001,6.441,4.207,14.975,3.165
		c0.007,0.002,3.455,1.138,5.688,0.199c0.2,0.078,3.727,1.076,5.98-0.097c0.998,0.493,2.838,1.311,7.471,0.274
		c2.136,0.364,4.775,0.27,8.21-0.808c8.675-2.716,10.197-4.766,18.584-5.813c0,0-4.104-0.613-21.846,0.663
		c-10.47,0.572-21.018-1.138-31.382-2.234c-6.052-1.239-14.581-1.239-17.297,4.24c-2.717,5.479-0.146,10.103,4.241,11.104
		c4.384,1.001,17.549,1.649,31.498-0.438c3.773-0.564,9.784-0.651,16.387-0.313c0,0,9.93,0.382,8.75,5.335
		c-1.179,4.953-8.929,3.571-11.928,1.078c0,0-5.661-3.673-18.195-1.921c-12.535,1.752-37.113,0.253-37.246,0.067
		c-0.637-2.049-1.461-4.221-1.632-4.642c0,0,1.881,0.664,2.453,2.214c0,0,2.021-2.998-0.941-6.878
		c0.003-1.93-0.964-2.556-0.964-2.556c2.812,0.763,3.384-3.05,3.384-3.05c-2.335-0.763-5.099,1.097-5.099,1.097
		c3.335-0.715,3.523-3.24,3.523-3.24c-2.716-0.285-4.99,1.149-4.99,1.149c3.167-0.875,3.029-5.257,3.029-5.257
		c-3.976,0.067-5.458,3.37-5.458,3.37c2.429-2.831,0.54-7.413,0.54-7.413c-3.101,1.82-3.438,6.335-3.438,6.335l0,0
		c0.135-4.784-3.842-5.593-3.842-5.593c1.279,2.291,0.942,5.458,0.942,5.458c-0.675-3.033-3.167-3.978-3.167-3.978
		c-0.605,2.563-0.136,4.786-0.136,4.786c-1.146-3.101-3.639-2.629-3.639-2.629c0.172,0.278,0.315,0.618,0.259,1.125
		c-1.041,0.636-1.856,1.285-2.166,3.217c-0.086,0.539-0.12,1.014-0.128,1.67c-1.373-1.859-2.853-0.836-2.853-0.836
		s1.025,0.857-0.5,2.835c-1.522,1.979-0.715,3.191-0.971,3.412c-1.585,1.354-2.547,2.974-3.437,5.046
		c5.068-3.245,3.943-2.233,1.497,0.867c-0.685,0.941-1.361,2.097-2.14,3.427c-6.144-3.479-7.188-8.97-5.268-10.316
		c1.334-0.938,2.073-3.029,1.147-4.427c0.064-0.945-0.068-1.878-0.711-2.817c-2.156-3.167-5.728-0.438-5.728-0.438l0,0
		c3.1,0.539,2.628,2.561,2.548,2.542c-2.117,0.824-2.165,3.521-2.023,6.137c0.104-2.631-0.529-4.014-1.145-4.714
		c-2.952-7.639-8.781-1.202-8.781-1.202c3.538-0.876,4.111,1.348,4.111,1.348s0.357-1.411-0.311,0.924
		c-0.306,1.069,0.285,1.994,0.781,2.484c-1.162-0.771-1.924-0.15-1.938-0.043c-0.017,0.105-1.7-1.579-3.724-0.164
		c-2.021,1.415-2.089,4.011-1.179,5.729c0,0,1.583-3.27,4.288-1.031c1.081,1.315,2.559,0.958,4.273,0.72
		c1.716-0.238,2.191,0.43,2.383,0.93c0.19,0.5-0.382,0.812-0.382,0.812l0,0c-2.335,1.31-2.765,2.418-2.765,2.418
		c-0.667,1.418,0.62,1.87,1.646,1.774c1.022-0.097,3.479-2.454,3.479-2.454l0,0c1.287,3.432,3.049,3.101,3.049,3.101
		c-3.232,3.47-7.614,2.188-7.614,2.188c3.234,4.313,7.21,2.933,7.21,2.933c-1.077,2.562-5.224,1.887-5.224,1.887
		c2.696,3.233,7.685,4.01,7.685,4.01c-0.792,1.398-4.063,0.979-4.063,0.979c6.02,4.995,13.042,6.053,15.047,6.322
		c-2.139,8.856-8.595,11.737-8.595,11.737c1.523-3.252-1.651-4.161-1.787-4.22c-1.362-3.607-4.131-2.964-6.711-1.013
		c0,0,2.931-0.5,3.375,1.906c-0.851,0.886-0.99,2.121-0.167,3.173c0.012-0.022-1.573-1.038-2.841-0.274
		c-0.081,0.128-0.392-1.707-2.679-1.11c-2.287,0.596-3.692,3.573-2.668,5.86c1.342-1.87,3.019-2.001,4.229-0.718
		c0.379,1.158,1.275,1.744,2.417,1.776c-0.118,0.036-3.692,6.16,3.718,6.041c0,0-1.811-2.05-0.146-3.779
		c0.734,0.52,1.326,0.695,1.813,0.612c1.752-0.305,1.583-2.695,2.543-3.27c0.96-0.573,1.416,0.117,1.416,0.117l0,0
		c0.474,5.089,6.194,3.556,6.194,3.556c-1.476-1.074-2.39-2.548-2.202-4.438c-0.093-0.918,2.465-3.281,2.465-3.281
		c-1.097,4.693,2.765,5.288,2.765,5.288c-0.952-2.62,1.404-7.98,1.404-7.98l0,0c-1.334,4.004,3.051,6.528,3.051,6.528
		s-0.716-1.812,0.049-3.432c0.763-1.62,0.477-3.24,0.333-5.146c-0.145-1.905,0.447-3.375,0.447-3.375
		c0,5.291,4.104,5.082,4.091,5.085c-0.16,0.055-0.563-2.229,0.388-3.731c0.833-1.322,0.841-5.055,0.841-5.055
		c2.954,3.384,4.002-5.193,4.002-5.193"/>
	<path id="path2461" fill="none" stroke="#000000" stroke-width="1.5" d="M187.975,72.99c0,0,1.858,0.047,2.669,0.952
		 M189.739,68.749c0,0-2.431-2.858-5.433,0.904c0,0,2.573-1.145,3.574,0.572 M185.832,74.229c0,0-3.719,0.189-3.574,3.002
		c0.143,2.813,2.239,3.574,2.239,3.574s-0.717-2.145,1.954-3.146 M192.597,76.088L192.597,76.088c0,0-3.479,0.238-2.764,3.766
		c0.715,3.526,3.098,3.432,3.098,3.432s-0.522-2.287,1.334-3.288 M194.265,75.278c0,0-1.382,0.048-1.572,0.905
		c-0.188,0.857,1.384,4.574,3.1,4.192c0,0,1,0.048,1.048-0.189s-0.095-2.146,0.572-2.717c0.667-0.57,0.855-1.048,2.571-1.048
		c0,0,2.813,3.718,5.053,1.812c0,0-3.002-3.907-2.287-6.719c0,0,0.855,3.098,3.05,3.479c0,0,0.855-0.953,0.286-3.24
		c-0.572-2.287-0.668-3.669-0.524-5.003c0,0,1.524,4.67,4.956,4.003c3.431-0.667-1.335-0.048-0.953-6.624 M207.56,62.031
		c0,0,1.098,3.383,4.768,2.335l0,0c0,0-0.479-7.673-5.957-8.911c0,0,3.752-0.282,2.504-3.65c0,0-7.277,2.829-13.039-4.382
		c-2.042-2.555-5.564-3.917-9.263-4.609 M189.739,78.469c-2.097,1.239-4.003-0.762-4.191-2.858c-0.19-2.097,2.43-2.62,2.43-2.62
		c-1-1.859,0-3.622,2.002-4.385c2.001-0.763,3.24,2.24,4.193,3.622s1.811-1.382,1.811-1.382s1.479-3.766,3.002-6.339
		c1.525-2.572,1.858-5.146-2.571-5.146c-4.433,0-7.34,2.334-13.104-4.622c-5.766-6.957-17.154-5.242-17.154-5.242 M186.403,57.932
		L186.403,57.932c0,0-5.643-4.734-12.104-5.767c-6.576-1.048-12.484,0.048-28.021,5.29c-4.981,1.684-10.104,1.563-14.765,0.627
		 M132.27,55.24c0,0-1.048,8.576-4.002,5.193c0,0-0.008,3.731-0.841,5.054c-0.948,1.505-0.548,3.786-0.387,3.731
		c0.012-0.003-4.09,0.205-4.09-5.085c0,0-0.594,1.47-0.449,3.375c0.144,1.906,0.43,3.526-0.333,5.146
		c-0.765,1.619-0.048,3.431-0.048,3.431s-4.386-2.524-3.052-6.527l0,0c0,0-2.356,5.36-1.403,7.98c0,0-3.86-0.596-2.766-5.289
		c0,0-2.558,2.364-2.465,3.282c-0.187,1.89,0.729,3.362,2.202,4.438c0,0-5.722,1.534-6.194-3.555l0,0c0,0-0.455-0.69-1.416-0.118
		c-0.96,0.573-0.792,2.966-2.543,3.27c-1.752,0.304-4.886-2.796-2.492-4.92 M100.847,76.383c-3.016,0.928-4.835-0.505-4.077-3.875
		c0.758-3.369,3.894-1.381,3.875-1.349c-1.565-2.004,0.354-4.666,3.641-4.01c0,0,3.175,0.91,1.649,4.161
		c0,0,6.456-2.88,8.493-11.684 M104.013,67.034L104.013,67.034c0,0-1.549-5.528-6.576-0.953c0,0,2.933-0.5,3.433,1.857
		 M97.723,71.013L97.723,71.013c0,0-0.31-1.836-2.597-1.239c-2.288,0.597-3.693,3.574-2.668,5.86
		c1.341-1.869,3.018-2.001,4.169-0.81 M98.986,76.731c0,0-3.572,6.124,3.836,6.004c0,0-1.811-2.049-0.333-3.954 M114.633,59.52
		c-2.108-0.214-9.132-1.271-15.15-6.269c0,0,3.271,0.421,4.063-0.979c0,0-4.987-0.774-7.685-4.009c0,0,4.146,0.674,5.225-1.888
		c0,0-3.978,1.381-7.21-2.933c0,0,4.38,1.281,7.613-2.188c0,0-1.763,0.331-3.049-3.1l0,0c0,0-2.454,2.357-3.479,2.453
		c-1.025,0.096-2.313-0.356-1.646-1.774c0,0,0.431-1.107,2.766-2.418l0,0c0,0,0.57-0.311,0.381-0.812
		c-0.19-0.5-0.667-1.167-2.382-0.93c-1.715,0.238-3.193,0.597-4.267-0.737c-1.07-1.334-1-3.336,0.62-4.623
		c0,0,0.763-0.618,1.692-0.047 M94.507,30.961c0,0-3.598-1.645-2.931-3.979s2.905-2.479,3.739-2.024s2.551,1.478,2.385,5.67
		c-0.171-3.127-0.068-6.374,3.383-6.421c4.044,0.033,3.379,4.022,1.382,5.425c-1.921,1.349-0.876,6.84,4.987,10.312 M90.402,29.531
		L90.402,29.531c0,0-1.685-1.687-3.707-0.271c-2.021,1.415-2.089,4.011-1.179,5.729c0,0,1.583-3.271,4.279-1.012 M91.885,26.06
		c0,0-0.573-2.225-4.111-1.349c0,0,5.829-6.437,8.862,1.28 M99.802,24.51c0,0,0.472-2.021-2.628-2.56l0,0
		c0,0,3.571-2.73,5.728,0.438c0.643,0.939,0.775,1.871,0.649,2.717 M167.664,51.87c0,0-7.01,4.078-6.302,6.907
		c0.707,2.83,4.921,2.562,6.772,2.763c1.853,0.203,3.773,2.394,1.313,4.077c-2.462,1.685-4.616,5.862-7.413,5.931
		c-2.799,0.068-2.091-2.089-2.933-2.931c-0.843-0.844-3.909-1.483-4.648,1.146c-0.742,2.628,1.313,2.189,1.985,3.134
		c0,0-2.659-1.92-4.548,0.337c-1.888,2.258,0.892,4.805,2.204,4.399 M159.742,75.921c0,0-3.183-2.12-5.396,1.215
		c-2.214,3.336,1.537-2.787,4.801,3.932c0,0,0.786,0.597,1.334-0.834c0.549-1.429,2.099-2.813,3.1-2.12s0.866,3.207,5.434,1.877l0,0
		c0,0-2.711-2.898,0.81-5.611 M169.45,72.626c0,0,0.64,1.416,0.135,2.965c-0.505,1.551,1.281,2.898,1.281,2.898
		s0.134-2.563,1.516-3.304s1.617-4.785,1.011-5.626 M173.696,72.643c0,0,1.35,0.741,1.617,3.521c0,0,2.698-4.242,1.081-9.868
		c0,0,2.623,2.882,2.79,5.169c0,0,4.789-6.386-0.501-11.483l0,0c0,0,2.359,0,2.74-1.071c0.381-1.072-0.145-2.217-1.313-2.55
		c-1.167-0.333-1.451,0.597-2.478,0.716c-1.278,0.148-1.573-2.287,0.762-2.121c0.683,0.049,1.2-0.42,1.723-1.228 M158.028,68.145
		c0,0-4.614-3.941-8.088,1.482c0,0,3.115-0.956,4.391,1.086 M152.237,72.943c-2.854-0.952-3.767,0.104-4.479,1.716
		c-0.552,1.522,0.052,2.882,0.855,3.902c0.646-1.616,1.641-2.042,3.313-1.95 M154.405,77.946c0,0-3.098,0.523-1.334,4.979
		c0,0,3.025-3.669,6.054-1.953 M194.742,46.21c0,0,7.575,4.003,12.771-1.763c5.194-5.767-1.382-10.198-4.193-11.39
		c-2.811-1.19-16.011-1.954-24.49-0.523c-3.651,0.615-16.081,0.878-26.295,0.276c0,0-5.322-0.276-5.063-3.255
		c0.263-2.979,2.66-5.047,6.233-4.047c3.572,1.001,6.441,4.207,15.13,3.241 M162.125,25.458c0,0,1.904,0.07,3.836,1.501
		c1.93,1.43,4.05,3.073,8.506,1.979 M168.224,25.481c0,0,1.786-0.119,3.55,1.382c1.765,1.502,3.266,3.621,8.673,1.979
		 M175.491,26.482c0,0,0.477-0.478,3.857,1.716c3.384,2.191,6.386,1.238,8.34,0.81 M180.709,26.315c0,0,0.882-0.356,1.954,0.381
		c1.07,0.738,4.691,4.266,13.364,1.55c8.675-2.717,10.197-4.766,18.584-5.813c0,0-4.104-0.614-21.846,0.663
		c-2.143,0.154-4.521,0.134-7.062-0.018l0,0c0,0-18.27-0.979-24.32-2.22c-6.052-1.238-14.581-1.238-17.297,4.241
		c-2.717,5.479-0.146,10.103,4.241,11.104c4.384,1.001,17.549,1.649,31.498-0.438c3.773-0.564,9.784-0.652,16.387-0.313
		c0,0,9.93,0.382,8.75,5.335c-1.179,4.952-8.929,3.57-11.928,1.077c0,0-5.661-3.673-18.195-1.921
		c-12.535,1.752-37.113,0.253-37.113,0.253 M122.188,31.542c0,0,1.457,0.325,1.648,1.087c0.085,0.339,0.408,0.578,0.784,0.723
		c0,0-0.117,3.565-3.265,2.328c-1.057-0.416-1.599-1.091-1.846-1.854l0,0c0,0-0.251-0.387-0.203-1.006c0,0-2.145,0.523-2.239-1.523
		c-0.096-2.049,0.667-2.858,1.432-3.956c0.762-1.096,0.88-6.198-0.333-8.152c0,0,2.493-0.472,3.639,2.628
		c0,0-0.472-2.225,0.136-4.786c0,0,2.492,0.944,3.167,3.978c0,0,0.337-3.167-0.942-5.458c0,0,3.977,0.81,3.842,5.594l0,0
		c0,0,0.337-4.516,3.438-6.335c0,0,1.889,4.582-0.54,7.412c0,0,1.482-3.302,5.458-3.369c0,0,0.138,4.381-3.029,5.256
		c0,0,2.274-1.436,4.991-1.148c0,0-0.189,2.524-3.524,3.239c0,0,2.764-1.857,5.099-1.096c0,0-0.57,3.813-3.384,3.049
		c0,0,1.62,1.05,0.663,4.244c-2.97,0.338-3.998-2.434-3.998-2.434c1.145,4.479-0.43,5.433-1.668,6.527
		c-1.239,1.097-2.479-1.857-2.479-1.857s1.479,2.24-1.952,2.621c-3.434,0.381-2.456-3.899-2.456-3.899
		c0.472,0.183,1.022,0.214,1.29,0.107c0.477-0.189,1.199,0.081,1.856-0.542 M120.024,34.821c0,0,0.199,1.197,0.098,2.813
		c-0.078,1.203,0.024,4.418,1.429,4.575c2.141,0.24,3.908-1.573,4.956-4.766 M118.07,28.054c0,0-2.478-0.361-1.811-4.527
		c0.31-1.931,1.125-2.581,1.987-3.092 M134.509,47.827c2.797-1.449,1.387-6.321,1.927-5.95c0.539,0.37,1.261,1.175,1.261,1.175
		s0.495-3.1-1.73-7.682c0,0,1.881,0.664,2.453,2.214c0,0,2.021-2.999-0.943-6.705 M117.213,28.865
		c-4.91,0.229-7.025,2.563-8.839,6.791c0,0,2.311-1.979,4.239-2.05c0.024-0.023-5.551,4.169-5.358,10.889
		c0,0,1.382-1.954,2.954-1.857c0,0-2.766,6.052-0.572,10.437c0,0,0.143-2.288,1.906-3.526l0,0c0,0-1.431,3.384,0.763,6.576
		c0,0,0.715-2.573,1.572-3.098c0,0-0.812,3.766,1.001,8.006c0,0,4.099-1.191,6.813-4.86c0,0,1.191,2.036,0.315,3.484
		c0,0,3.201-0.81,4.516-6.604c0,0,0.235,3.403-0.473,4.448c0,0,3.943-2.426,4.415-9.231c0,0,0.909,3.941,0.37,5.154
		c0,0,5.459-3.134,2.662-14.253 M112.066,30.389c0,0-0.81-1.216,0.715-3.191c1.525-1.979,0.5-2.836,0.5-2.836
		s1.479-1.023,2.838,1.072 M114.123,36.64c0,0-1.28,4.583-0.741,9.502c0,0,1.078-1.281,2.123-1.146c0,0-1.112,1.448-0.708,3.809
		c0,0,1.28-1.617,3.134-1.449c0,0-1.651,1.854,0.104,6.4c4.276-2.594,3.269-5.391,3.269-5.391s1.449,1.516,0.977,3.672
		c0,0,2.631-0.773,2.563-4.718l0,0c0,0,0.841,1.481,0.942,2.896c0,0,1.784-0.605,2.323-5.559c0,0,1.182,1.11,1.112,2.089
		c0,0,1.617-0.979,1.517-6.369 M129.96,36.236c0,0-0.202,3.438-1.35,4.246c-1.146,0.81-2.584,3.644-3.323,3.912
		c-0.741,0.27-2.628,0.066-3.37,0.403c-0.74,0.337-1.617,1.079-2.695-0.471c-1.078-1.551-1.55-1.617-1.954-2.359
		c0,0-0.202-0.675,0-1.482c0.202-0.809,0.811-5.12-0.065-6.198c0,0,1.304-0.813,1.506-1.554"/>
	<path id="path2443" d="M122.361,36.211c0,0,0.363,1.463,0.303,2.352l-0.08,1.108c0,0,0.888-2.221,2.314-2.776
		C124.898,36.894,124.686,33.52,122.361,36.211z M118.407,26.514c0,0-0.021-0.02-0.328-0.851c-0.312-0.832-0.213-2.589,0.676-2.357
		C119.643,23.538,118.407,26.533,118.407,26.514z M127.407,24.829l-0.749,0.001c0,0-0.934,0.851-1.15,1.846
		c-1.594-1.3-3.101-2.469-5.335-1.825l0.242,0.883c0.647,1.208,0.665,1.715,0.998,2.027c0.271,0.381,0.637,0.745,1.12,0.958
		c0.48,0.214,1.091,0.26,1.758,0.022c0.426-0.151,0.736-0.352,0.955-0.577c0.168-0.175,0.215-0.384,0.262-0.588
		c0.007,0.021,0.019,0.025,0.041,0.063c0.021,0.035,0.054,0.14,0.217,0.163c0.082,0.013,0.181-0.027,0.23-0.062
		c0.049-0.033,0.058-0.07,0.071-0.095c0.063-0.091,0.063-0.118,0.078-0.169c0.018-0.052,0.057-0.104,0.05-0.187
		C126.096,25.855,127.407,24.829,127.407,24.829z M121.344,25.843c0.337-0.027,1.117,0.032,1.563,0.366
		c-0.493,0.208-0.592,0.811-0.592,1.063c0,0.259,0.063,0.486,0.142,0.703c-0.209-0.152-0.393-0.353-0.547-0.568
		C121.558,26.915,121.417,26.081,121.344,25.843z M124.222,26.738c0.213,0.063,0.4,0.163,0.536,0.252
		c0.161,0.235,0.237,0.183,0.226,0.384c-0.008,0.125-0.066,0.239-0.194,0.373c-0.128,0.133-0.339,0.281-0.704,0.411
		c0.125-0.254,0.182-0.558,0.182-0.888C124.265,27.085,124.262,26.903,124.222,26.738z M128.216,25.142l0.527,0.529
		c0,0,0.059,1.261-0.492,2.121c2.046,0.207,3.938,0.447,5.063,2.479l-0.795,0.453c-1.313,0.396-1.683,0.741-2.14,0.729
		c-0.462,0.076-0.979,0.076-1.47-0.115c-0.491-0.19-0.954-0.588-1.261-1.228c-0.192-0.407-0.271-0.771-0.268-1.084
		c0.004-0.241,0.119-0.423,0.229-0.601c-0.02,0.009-0.029,0.006-0.071,0.016c-0.041,0.01-0.14,0.063-0.271-0.036
		c-0.064-0.05-0.106-0.148-0.119-0.206c-0.013-0.059,0.011-0.092,0.016-0.119c0.021-0.109,0.039-0.128,0.063-0.174
		c0.025-0.048,0.034-0.112,0.099-0.167C128.416,26.794,128.216,25.142,128.216,25.142z M131.785,30.147
		c-0.219-0.259-0.813-0.769-1.363-0.849c0.2,0.497-0.157,0.99-0.337,1.17c-0.184,0.183-0.389,0.302-0.594,0.398
		c0.256,0.04,0.521,0.027,0.786-0.017C130.876,30.752,131.565,30.263,131.785,30.147z M129.117,28.743
		c-0.196-0.104-0.397-0.169-0.559-0.202c-0.281,0.053-0.297-0.039-0.431,0.11c-0.084,0.096-0.122,0.219-0.125,0.401
		c-0.003,0.187,0.04,0.439,0.207,0.789c0.091-0.268,0.267-0.522,0.499-0.756C128.842,28.958,128.972,28.832,129.117,28.743z"/>
</g>
<path fill="#FF0000" stroke="#070404" stroke-width="2" stroke-linecap="round" d="M95.715,147.234
	c0,19.568-15.864,35.433-35.433,35.433c-19.569,0-35.433-15.864-35.433-35.433c0-11.691,5.662-22.059,14.392-28.511
	c5.884-4.351,13.163-6.922,21.041-6.922C79.85,111.801,95.715,127.666,95.715,147.234z"/>
<line fill="#FFFFFF" stroke="#FFFFFF" stroke-width="3" stroke-linecap="round" x1="55.844" y1="133.947" x2="55.858" y2="135.555"/>
<line fill="#FFFFFF" stroke="#FFFFFF" stroke-width="3" stroke-linecap="round" x1="55.842" y1="128.325" x2="55.844" y2="133.947"/>
<line fill="#FFFFFF" stroke="#FFFFFF" stroke-width="3" stroke-linecap="round" x1="65.944" y1="133.949" x2="65.944" y2="135.555"/>
<line fill="#FFFFFF" stroke="#FFFFFF" stroke-width="3" stroke-linecap="round" x1="65.944" y1="128.325" x2="65.944" y2="133.949"/>
<path fill="none" stroke="#FFFFFF" stroke-width="3" stroke-miterlimit="10" d="M49.901,172.28c-2.788,0-5.043-2.429-5.043-5.431"/>
<path fill="none" stroke="#FFFFFF" stroke-width="3" stroke-miterlimit="10" d="M76.944,166.849c0,3.002-2.255,5.431-5.043,5.431"/>
<line fill="#FFFFFF" stroke="#FFFFFF" stroke-width="2" stroke-linecap="round" x1="55.844" y1="135.947" x2="65.944" y2="135.949"/>
<circle fill="#FFFFFF" cx="64.422" cy="121.409" r="1.349"/>
<circle fill="#FFFFFF" cx="59.901" cy="126.325" r="1.933"/>
<circle fill="#FFFFFF" cx="58.379" cy="118.71" r="1.349"/>
<circle fill="#FF0000" stroke="#070404" stroke-width="2" stroke-linecap="round" cx="246.885" cy="147.784" r="36.356"/>
<path fill="none" stroke="#FFFFFF" stroke-width="2.5" d="M257.211,180.678c-3.229-1.748-26.248-8.183-26.248-18.815
	c0-10.258,14.861-13.159,18.381-15.436"/>
<path fill="none" stroke="#FFFFFF" stroke-width="2.5" d="M238.69,113.269c3.156,1.81,26.154,7.522,26.154,18.532
	c0,10.622-14.539,13.627-17.983,15.983"/>
<path fill="none" stroke="#FFFFFF" stroke-width="2.5" d="M237.448,181.07c3.273-1.747,27.173-8.575,27.173-19.207
	c0-10.258-15.075-13.159-18.649-15.436"/>
<path fill="none" stroke="#FFFFFF" stroke-width="2.5" d="M256.802,113.269c-3.202,1.81-26.555,7.522-26.555,18.532
	c0,10.622,14.748,13.627,18.245,15.983"/>
<line fill="none" stroke="#FFFFFF" stroke-width="1.25" x1="233.355" y1="128.849" x2="260.928" y2="128.849"/>
<line fill="none" stroke="#FFFFFF" x1="262.284" y1="129.849" x2="262.284" y2="129.849"/>
<line fill="none" stroke="#FFFFFF" stroke-width="1.25" x1="233.098" y1="134.935" x2="260.671" y2="134.935"/>
<path fill="none" stroke="#FFFFFF" d="M258.715,137.515"/>
<path fill="none" stroke="#FFFFFF" d="M236.648,137.515"/>
<path fill="none" stroke="#FFFFFF" d="M257.918,125.311"/>
<path fill="none" stroke="#FFFFFF" d="M235.85,125.311"/>
<path fill="none" stroke="#FFFFFF" d="M258.175,136.515"/>
<path fill="none" stroke="#FFFFFF" d="M236.109,137.515"/>
<line fill="none" stroke="#FFFFFF" stroke-width="1.25" x1="240.134" y1="139.583" x2="255.237" y2="139.583"/>
<line fill="none" stroke="#FFFFFF" stroke-width="1.25" x1="240.719" y1="123.243" x2="254.465" y2="123.243"/>
<line fill="none" stroke="#FFFFFF" stroke-width="1.25" x1="234.076" y1="159.638" x2="261.651" y2="159.638"/>
<line fill="none" stroke="#FFFFFF" stroke-width="1.25" x1="233.821" y1="164.725" x2="261.394" y2="164.725"/>
<path fill="none" stroke="#FFFFFF" d="M258.64,156.101"/>
<path fill="none" stroke="#FFFFFF" d="M236.571,156.101"/>
<path fill="none" stroke="#FFFFFF" d="M258.896,168.305"/>
<path fill="none" stroke="#FFFFFF" d="M236.829,168.305"/>
<line fill="none" stroke="#FFFFFF" stroke-width="1.25" x1="242.212" y1="170.374" x2="253.247" y2="170.374"/>
<line fill="none" stroke="#FFFFFF" stroke-width="1.25" x1="240.441" y1="154.033" x2="254.189" y2="154.033"/>
<path fill="#FF0000" stroke="#070404" stroke-width="2" stroke-linecap="round" d="M187.647,291.994
	c0,19.57-15.864,35.434-35.434,35.434c-19.568,0-35.432-15.863-35.432-35.434c0-19.568,15.864-35.433,35.432-35.433
	C171.782,256.561,187.647,272.426,187.647,291.994"/>
<circle fill="#FFFFFF" cx="152.215" cy="291.994" r="14.289"/>
<path fill="none" d="M174.047,300.115"/>
<path fill="none" stroke="#FFFFFF" d="M185.501,294.388"/>
<path fill="none" stroke="#FFFFFF" d="M166.557,290.092"/>
<path fill="none" stroke="#FFFFFF" d="M166.557,289.133"/>
<path fill="none" stroke="#FFFFFF" d="M166.557,294.859"/>
<rect x="152.182" y="290.48" fill="#FFFFFF" stroke="#FDFBEA" stroke-width="2" width="34.143" height="2.307"/>
<line fill="none" stroke="#FFFFFF" stroke-width="1.6" x1="152.213" y1="264.871" x2="152.213" y2="318.234"/>
<line fill="none" stroke="#FFFFFF" stroke-width="1.6" x1="126.414" y1="291.994" x2="179.776" y2="291.994"/>
<line fill="none" stroke="#FFFFFF" stroke-width="1.6" x1="133.79" y1="310.861" x2="171.523" y2="273.127"/>
<line fill="none" stroke="#FFFFFF" stroke-width="1.6" x1="171.079" y1="311.095" x2="133.348" y2="273.363"/>
<line fill="none" stroke="#FFFFFF" stroke-width="1.6" x1="172.474" y1="299.92" x2="131.925" y2="283.123"/>
<line fill="none" stroke="#FFFFFF" stroke-width="1.6" x1="171.561" y1="284.217" x2="132.867" y2="300.244"/>
<line fill="none" stroke="#FFFFFF" stroke-width="1.6" x1="161.108" y1="272.885" x2="145.081" y2="311.578"/>
<line fill="none" stroke="#FFFFFF" stroke-width="1.6" x1="143.758" y1="272.885" x2="159.785" y2="311.578"/>
<line fill="none" stroke="#FFFFFF" stroke-width="3" stroke-linecap="round" x1="49.901" y1="172.28" x2="71.901" y2="172.28"/>
<line fill="none" stroke="#FFFFFF" stroke-width="3" stroke-linecap="round" x1="44.858" y1="166.849" x2="55.858" y2="135.555"/>
<line fill="none" stroke="#FFFFFF" stroke-width="3" stroke-linecap="round" x1="65.944" y1="135.555" x2="76.944" y2="166.849"/>
</svg>
